<svg xmlns="http://www.w3.org/2000/svg" xmlns:xlink="http://www.w3.org/1999/xlink" width="350" height="100" viewBox="0 0 350 100"><defs><clipPath id="b"><rect width="350" height="100"/></clipPath></defs><g id="a" clip-path="url(#b)"><path d="M34.84-24.057q-.164.918-.524,2.818t-.557,2.818A56.821,56.821,0,0,1,31.809-11a28.474,28.474,0,0,1-2.277,5.145,13.3,13.3,0,0,1-2.769,3.342A12.8,12.8,0,0,1,23.7-.5,22.608,22.608,0,0,1,20.192.684a26.255,26.255,0,0,1-5.046.36,16.027,16.027,0,0,1-6.161-1.1A10.273,10.273,0,0,1,4.741-3.166,13.794,13.794,0,0,1,2.366-7.82,20.55,20.55,0,0,1,1.579-13.7a35.457,35.457,0,0,1,.688-6.521Q4.659-32.839,11.9-38.868a18.369,18.369,0,0,1,11.535-3.867h.655q10.552.262,12.682,8.422-1.376.655-4.194,1.917t-4.194,1.884a6.771,6.771,0,0,0-1.606-4.211q-1.278-1.229-4.424-1.229-4.031,0-7.127,4.407a30.2,30.2,0,0,0-4.506,11.682,32.629,32.629,0,0,0-.655,6q0,8.159,6.062,8.159a6.472,6.472,0,0,0,2.966-.672,7.046,7.046,0,0,0,2.228-1.737,10.985,10.985,0,0,0,1.622-2.72,24.4,24.4,0,0,0,1.163-3.261q.442-1.606.868-3.736-.36,0-1.049.016t-1.049.016a17.2,17.2,0,0,0-3,.213,26.545,26.545,0,0,0-3.457,1q-.229-1.114-.672-3.31t-.672-3.277a30.52,30.52,0,0,1,10.126-1.409Q28.286-24.581,34.84-24.057ZM51.978-45.291h9.536L60.1-37.918H50.569ZM50.47-33.265q1.376.164,4.113.426t4.08.426L54.3-9.9a9.577,9.577,0,0,0-.164,1.671q0,3.048,2.818,3.048a11.814,11.814,0,0,0,7.57-2.982q.328,1.049.983,3.113t.983,3.113A16.831,16.831,0,0,1,60.76.536a28.138,28.138,0,0,1-6.718.836q-8.815,0-8.815-6.652a13.026,13.026,0,0,1,.262-2.392Q45.981-10.294,47-15.52t1.54-7.848a17.329,17.329,0,0,1-4.391,2.687q-.623-.983-1.835-3.015t-1.8-3.015Q48.275-29.234,50.47-33.265ZM78.586-10.556a6.263,6.263,0,0,0,.688,3.49,2.262,2.262,0,0,0,1.933.934q1.507,0,4.424-2.54a44.1,44.1,0,0,0,5.374-5.587,16.469,16.469,0,0,0,2.949-4.653q.1-.623.311-1.851t.311-1.851q-2.916-3.7-6.685-3.7-3.867,0-6.587,4.26T78.586-10.556ZM104.67-32.413l-4.227,21.529q-.59,2.916-1.212,5.358T97.658-.463a34.122,34.122,0,0,1-2.064,4.67,25.357,25.357,0,0,1-2.654,3.932A15.917,15.917,0,0,1,89.6,11.252a15.643,15.643,0,0,1-4.145,1.966,16.782,16.782,0,0,1-5.063.737q-6.062,0-14.058-4.752.557-1.114,1.638-3.326t1.606-3.293q6.128,4.26,11.371,4.26A6.348,6.348,0,0,0,83.026,6.5a10,10,0,0,0,1.786-.8,6.617,6.617,0,0,0,1.573-1.344Q87.172,3.469,87.7,2.8A11.276,11.276,0,0,0,88.827.9q.606-1.229.918-1.868a20.579,20.579,0,0,0,.786-1.983q.475-1.344.606-1.753t.492-1.622a.252.252,0,0,0,.033-.1.251.251,0,0,1,.033-.1.9.9,0,0,0,.049-.115q.016-.049.033-.115a.448.448,0,0,0,.016-.1q-.786,1.147-1.376,1.917a22.1,22.1,0,0,1-1.835,2.015A14.95,14.95,0,0,1,86.139-.905,12.932,12.932,0,0,1,83.108.455a12.345,12.345,0,0,1-3.8.59,7.1,7.1,0,0,1-6.062-3.228,13.951,13.951,0,0,1-2.294-8.274A28.5,28.5,0,0,1,73.2-21.943,19.644,19.644,0,0,1,79.487-30.1a14.9,14.9,0,0,1,9.093-3,11.677,11.677,0,0,1,3.654.573,11.71,11.71,0,0,1,2.31.934q.557.36,1.933,1.311.1-.524.655-2.523l3.768.2Zm8.651,21.857a6.263,6.263,0,0,0,.688,3.49,2.262,2.262,0,0,0,1.933.934q1.507,0,4.424-2.54a44.1,44.1,0,0,0,5.374-5.587,16.469,16.469,0,0,0,2.949-4.653q.1-.623.311-1.851t.311-1.851q-2.916-3.7-6.685-3.7-3.867,0-6.587,4.26T113.321-10.556Zm26.084-21.857-4.227,21.529q-.59,2.916-1.212,5.358T132.393-.463a34.123,34.123,0,0,1-2.064,4.67,25.357,25.357,0,0,1-2.654,3.932,15.917,15.917,0,0,1-3.342,3.113,15.643,15.643,0,0,1-4.145,1.966,16.782,16.782,0,0,1-5.063.737q-6.062,0-14.058-4.752.557-1.114,1.638-3.326t1.606-3.293q6.128,4.26,11.371,4.26a6.348,6.348,0,0,0,2.081-.344,10,10,0,0,0,1.786-.8,6.617,6.617,0,0,0,1.573-1.344q.786-.885,1.311-1.557A11.276,11.276,0,0,0,123.562.9q.606-1.229.918-1.868a20.579,20.579,0,0,0,.786-1.983q.475-1.344.606-1.753t.492-1.622a.251.251,0,0,0,.033-.1.251.251,0,0,1,.033-.1.9.9,0,0,0,.049-.115q.016-.049.033-.115a.448.448,0,0,0,.016-.1q-.786,1.147-1.376,1.917a22.1,22.1,0,0,1-1.835,2.015,14.95,14.95,0,0,1-2.441,2.015,12.932,12.932,0,0,1-3.031,1.36,12.345,12.345,0,0,1-3.8.59,7.1,7.1,0,0,1-6.062-3.228,13.951,13.951,0,0,1-2.294-8.274,28.5,28.5,0,0,1,2.245-11.486,19.644,19.644,0,0,1,6.292-8.159,14.9,14.9,0,0,1,9.093-3,11.677,11.677,0,0,1,3.654.573,11.71,11.71,0,0,1,2.31.934q.557.36,1.933,1.311.1-.524.655-2.523l3.768.2Zm20.743-13.4-6.193,32.343a16.605,16.605,0,0,0-.262,2.654,5.02,5.02,0,0,0,1.376,3.883,6.2,6.2,0,0,0,4.293,1.262,16.143,16.143,0,0,0,9.011-2.851q.393,1.114,1.163,3.31T170.7-1.938A16.874,16.874,0,0,1,165.08.536a26.626,26.626,0,0,1-6.57.836q-6.259,0-9.88-2.8a8.734,8.734,0,0,1-3.621-7.226,16.2,16.2,0,0,1,.295-2.982q1.081-5.8,3.228-17.417t3.228-17.417q1.376.131,4.178.328T160.148-45.815Zm25.4,28.837a51.389,51.389,0,0,0,6.57-1.245,13.515,13.515,0,0,0,4.047-1.442,3.8,3.8,0,0,0,1.671-2.851,3.236,3.236,0,0,0-1.131-2.474,5.159,5.159,0,0,0-3.555-1.032,6.194,6.194,0,0,0-4.653,2.474A13.7,13.7,0,0,0,185.544-16.979Zm8.815-15.7a16.694,16.694,0,0,1,4.752.623,10.334,10.334,0,0,1,3.375,1.606,8.991,8.991,0,0,1,2.13,2.327,9.057,9.057,0,0,1,1.18,2.671,11.372,11.372,0,0,1,.328,2.736,9.587,9.587,0,0,1-.524,3.342,10.787,10.787,0,0,1-6.161,6.046q-4.653,2.048-14.549,3.228a4.239,4.239,0,0,0,1.393,3.08,4.888,4.888,0,0,0,3.588,1.376A17.142,17.142,0,0,0,200.29-8.885l3.342,5.9Q201.6-1.9,201.044-1.626T199-.643a11.157,11.157,0,0,1-2.212.852q-.721.147-2.146.459a17.042,17.042,0,0,1-2.867.377q-1.442.066-3.408.066-5.735,0-8.782-3.293t-3.048-9.028a26.746,26.746,0,0,1,.492-4.915,25.565,25.565,0,0,1,2.179-6.537,20.681,20.681,0,0,1,3.67-5.243A15.64,15.64,0,0,1,188-31.413,15.992,15.992,0,0,1,194.359-32.675ZM259.691-29a11.444,11.444,0,0,0,.262-2.425,5.3,5.3,0,0,0-.377-2.114,3.694,3.694,0,0,0-.852-1.294,3.36,3.36,0,0,0-1.327-.672,6.718,6.718,0,0,0-1.425-.279q-.573-.033-1.491-.033h-.295q-1.147,0-2.835.082t-2.114.082q-.066.393-.213,1.163t-.246,1.163l-2.556,12.845q2.359.066,3.408.066a17.422,17.422,0,0,0,2.376-.147,9.4,9.4,0,0,0,2.343-.688,7.6,7.6,0,0,0,2.245-1.442,9.213,9.213,0,0,0,1.8-2.507A14.768,14.768,0,0,0,259.691-29ZM242.094.782H233.9q1.409-7.209,4.211-21.628t4.211-21.628q1.868,0,4.571-.131t4.932-.131q3.179,0,5.243.147a28.524,28.524,0,0,1,4.244.639,10.569,10.569,0,0,1,3.7,1.54,9.159,9.159,0,0,1,2.572,2.72,8.777,8.777,0,0,1,1.147,4.719,18.4,18.4,0,0,1-.36,3.474q-1.573,8.159-5.882,12.026T249.925-13.6q-2.359,0-5.014-.1Q243.732-7.541,242.094.782Zm42.862-46.073h9.536l-1.409,7.373h-9.536Zm-1.507,12.026q1.376.164,4.113.426t4.08.426L287.282-9.9a9.578,9.578,0,0,0-.164,1.671q0,3.048,2.818,3.048a11.815,11.815,0,0,0,7.57-2.982q.328,1.049.983,3.113t.983,3.113A16.831,16.831,0,0,1,293.738.536a28.138,28.138,0,0,1-6.718.836q-8.815,0-8.815-6.652a13.026,13.026,0,0,1,.262-2.392q.492-2.622,1.507-7.848t1.54-7.848a17.329,17.329,0,0,1-4.391,2.687q-.623-.983-1.835-3.015t-1.8-3.015Q281.253-29.234,283.448-33.265Zm28.116,22.709a6.263,6.263,0,0,0,.688,3.49,2.262,2.262,0,0,0,1.933.934q1.507,0,4.424-2.54a44.094,44.094,0,0,0,5.374-5.587,16.469,16.469,0,0,0,2.949-4.653q.1-.623.311-1.851t.311-1.851q-2.916-3.7-6.685-3.7-3.867,0-6.587,4.26T311.564-10.556Zm26.084-21.857-4.227,21.529q-.59,2.916-1.212,5.358T330.635-.463a34.123,34.123,0,0,1-2.064,4.67,25.357,25.357,0,0,1-2.654,3.932,15.917,15.917,0,0,1-3.342,3.113,15.643,15.643,0,0,1-4.145,1.966,16.782,16.782,0,0,1-5.063.737q-6.062,0-14.058-4.752.557-1.114,1.638-3.326t1.606-3.293q6.128,4.26,11.371,4.26A6.347,6.347,0,0,0,316,6.5a10,10,0,0,0,1.786-.8,6.617,6.617,0,0,0,1.573-1.344q.786-.885,1.311-1.557A11.274,11.274,0,0,0,321.8.9q.606-1.229.918-1.868a20.576,20.576,0,0,0,.786-1.983q.475-1.344.606-1.753t.492-1.622a.251.251,0,0,0,.033-.1.251.251,0,0,1,.033-.1.9.9,0,0,0,.049-.115q.016-.049.033-.115a.448.448,0,0,0,.016-.1q-.786,1.147-1.376,1.917a22.105,22.105,0,0,1-1.835,2.015,14.95,14.95,0,0,1-2.441,2.015,12.933,12.933,0,0,1-3.031,1.36,12.345,12.345,0,0,1-3.8.59,7.1,7.1,0,0,1-6.062-3.228,13.951,13.951,0,0,1-2.294-8.274,28.5,28.5,0,0,1,2.245-11.486,19.644,19.644,0,0,1,6.292-8.159,14.9,14.9,0,0,1,9.093-3,11.677,11.677,0,0,1,3.654.573,11.71,11.71,0,0,1,2.31.934q.557.36,1.933,1.311.1-.524.655-2.523l3.768.2Z" transform="translate(4.921 65.971)" fill="#f7cf96"/><path d="M150.536-48.094l1.365.13c.9.086,2.294.195,4.141.325,1.87.131,3.3.242,4.245.33l1.645.153-6.5,33.948a15.178,15.178,0,0,0-.239,2.39,3.654,3.654,0,0,0,.89,2.777,4.87,4.87,0,0,0,3.279.867,14.743,14.743,0,0,0,8.186-2.6l1.6-1.056.638,1.809c.263.745.654,1.859,1.164,3.312s.9,2.552,1.158,3.261l.392,1.078-.938.661a18.439,18.439,0,0,1-6.115,2.7,28.251,28.251,0,0,1-6.939.882c-4.493,0-8.126-1.048-10.8-3.115a10.2,10.2,0,0,1-4.2-8.412,17.782,17.782,0,0,1,.321-3.258c.715-3.834,1.8-9.693,3.227-17.413s2.511-13.571,3.228-17.419Zm7.825,3.633c-.718-.056-1.563-.118-2.529-.186-1.112-.078-2.064-.149-2.847-.212-.71,3.816-1.71,9.213-2.978,16.078-1.427,7.721-2.513,13.582-3.228,17.419a14.79,14.79,0,0,0-.269,2.707,7.247,7.247,0,0,0,3.039,6.039C151.682-.965,154.7-.128,158.51-.128a25.249,25.249,0,0,0,6.2-.79,16.492,16.492,0,0,0,4.172-1.64c-.213-.6-.468-1.321-.762-2.16l-.554-1.58a17.211,17.211,0,0,1-8.2,2.124,7.633,7.633,0,0,1-5.306-1.656,6.458,6.458,0,0,1-1.863-4.989,17.892,17.892,0,0,1,.283-2.9l.006-.036ZM50.737-46.791h12.59L61.345-36.418H48.755Zm8.962,3H53.218l-.836,4.373h6.481Zm224.015-3h12.59l-1.982,10.373h-12.59Zm8.962,3H286.2l-.836,4.373h6.482ZM23.436-44.235h.693a17.306,17.306,0,0,1,9.239,2.486,11.7,11.7,0,0,1,4.857,7.056l.313,1.2-1.12.533c-.924.44-2.346,1.09-4.226,1.932-1.864.834-3.273,1.467-4.189,1.882l-1.884.852-.226-2.055c-.222-2.018-.75-2.9-1.154-3.293a5.225,5.225,0,0,0-3.384-.81c-2.188,0-4.118,1.233-5.9,3.77a24.082,24.082,0,0,0-3.11,6.539l1.229-.441a32.114,32.114,0,0,1,10.632-1.5c2.083,0,5.365.178,9.754.529l1.648.132-.291,1.627c-.11.614-.287,1.567-.527,2.834-.244,1.285-.428,2.215-.562,2.842a58.563,58.563,0,0,1-2,7.611,30.075,30.075,0,0,1-2.405,5.42,14.855,14.855,0,0,1-3.083,3.715A14.347,14.347,0,0,1,24.307.875a24.189,24.189,0,0,1-3.741,1.261l-.064.015a27.34,27.34,0,0,1-5.357.393A17.583,17.583,0,0,1,8.412,1.333a11.8,11.8,0,0,1-4.848-3.57A15.349,15.349,0,0,1,.928-7.391,22.135,22.135,0,0,1,.079-13.7a37.11,37.11,0,0,1,.714-6.8A41.794,41.794,0,0,1,4.539-31.881a26,26,0,0,1,6.4-8.14l.044-.035A19.917,19.917,0,0,1,23.436-44.235Zm.636,3h-.636A16.758,16.758,0,0,0,12.84-37.7c-4.519,3.773-7.58,9.747-9.1,17.754A34.139,34.139,0,0,0,3.079-13.7,19.154,19.154,0,0,0,3.8-8.248,12.365,12.365,0,0,0,5.919-4.1,8.842,8.842,0,0,0,9.558-1.44a14.622,14.622,0,0,0,5.587.984,25.325,25.325,0,0,0,4.7-.321,21.148,21.148,0,0,0,3.239-1.089,11.389,11.389,0,0,0,2.7-1.784,11.867,11.867,0,0,0,2.455-2.97,27.152,27.152,0,0,0,2.149-4.87,55.608,55.608,0,0,0,1.9-7.224l0-.02c.128-.6.313-1.532.55-2.783q.121-.641.221-1.172c-3.481-.26-6.119-.391-7.857-.391a32.352,32.352,0,0,0-8.381.932q.171.836.4,1.957.186.921.335,1.659a19.041,19.041,0,0,1,2.053-.528,18.462,18.462,0,0,1,3.268-.238c.228,0,.569-.005,1.013-.016.475-.011.83-.017,1.084-.017h1.83l-.359,1.794c-.29,1.448-.59,2.74-.893,3.84a26.014,26.014,0,0,1-1.234,3.461,12.518,12.518,0,0,1-1.852,3.09,8.571,8.571,0,0,1-2.7,2.106,7.987,7.987,0,0,1-3.643.833,6.745,6.745,0,0,1-5.751-2.645c-1.219-1.641-1.812-3.935-1.812-7.014a34.259,34.259,0,0,1,.682-6.277A31.81,31.81,0,0,1,14-32.407c2.352-3.348,5.163-5.045,8.355-5.045,2.523,0,4.31.539,5.464,1.648a6.547,6.547,0,0,1,1.7,3.137l2.449-1.1c1.182-.529,2.178-.98,2.979-1.349C33.425-39.082,29.854-41.087,24.072-41.235ZM15.3-14.614l-.344-1.669c-.154-.748-.38-1.864-.673-3.316s-.518-2.55-.669-3.262l-.271-1.275a40.133,40.133,0,0,0-1.148,4.559,31.294,31.294,0,0,0-.628,5.712c0,5.9,2.438,6.66,4.562,6.66a4.952,4.952,0,0,0,2.288-.51,5.514,5.514,0,0,0,1.761-1.367,9.56,9.56,0,0,0,1.392-2.35,23,23,0,0,0,1.092-3.06c.151-.549.3-1.153.453-1.806h-.236a15.848,15.848,0,0,0-2.728.188,25.381,25.381,0,0,0-3.241.943ZM251.826-44.235c2.144,0,3.944.051,5.35.151a30.158,30.158,0,0,1,4.467.672,12.1,12.1,0,0,1,4.223,1.768,10.693,10.693,0,0,1,2.993,3.158,10.275,10.275,0,0,1,1.376,5.516,19.985,19.985,0,0,1-.388,3.758,29.945,29.945,0,0,1-2.382,7.461,17.51,17.51,0,0,1-3.971,5.4,15.49,15.49,0,0,1-5.857,3.217,26.368,26.368,0,0,1-7.712,1.033c-1.2,0-2.465-.019-3.782-.057-.735,3.822-1.6,8.265-2.578,13.232l-.238,1.21H232.08l.349-1.788c.94-4.81,2.357-12.086,4.21-21.626,1.862-9.584,3.279-16.861,4.211-21.629l.237-1.212h1.235c1.215,0,2.728-.043,4.5-.129C248.64-44.19,250.324-44.235,251.826-44.235Zm-1.9,29.132c5.1,0,8.989-1.172,11.565-3.483,2.61-2.342,4.431-6.108,5.411-11.194a17,17,0,0,0,.333-3.19,7.371,7.371,0,0,0-.919-3.924,7.709,7.709,0,0,0-2.151-2.279,9.138,9.138,0,0,0-3.183-1.313,27.155,27.155,0,0,0-4.02-.606c-1.335-.1-3.063-.144-5.136-.144-1.454,0-3.089.043-4.859.129-1.264.061-2.4.1-3.406.12-.928,4.754-2.264,11.615-3.976,20.426-1.637,8.426-2.934,15.086-3.862,19.841h5.137c.987-5.022,1.854-9.479,2.579-13.266l.242-1.264,1.287.048C246.71-15.136,248.379-15.1,249.925-15.1Zm4.26-22.217h.295c.646,0,1.162.011,1.577.035a8.085,8.085,0,0,1,1.756.335,4.841,4.841,0,0,1,1.913,1,5.1,5.1,0,0,1,1.227,1.814,6.8,6.8,0,0,1,.5,2.711,13,13,0,0,1-.3,2.742,16.313,16.313,0,0,1-1.43,4.177,10.726,10.726,0,0,1-2.11,2.912,9.135,9.135,0,0,1-2.683,1.726,10.923,10.923,0,0,1-2.722.792,18.991,18.991,0,0,1-2.581.162c-.71,0-1.871-.022-3.45-.066l-1.776-.049,2.919-14.659c.059-.235.135-.6.228-1.082.1-.5.165-.879.207-1.128l.209-1.253h1.271c.178,0,.676-.014,2.041-.08C252.422-37.293,253.4-37.321,254.185-37.321Zm-4.555,15.4a16.006,16.006,0,0,0,2.17-.133,7.963,7.963,0,0,0,1.964-.584,6.146,6.146,0,0,0,1.806-1.158,7.8,7.8,0,0,0,1.495-2.1,13.353,13.353,0,0,0,1.157-3.416l0-.01a10,10,0,0,0,.228-2.108,3.867,3.867,0,0,0-.253-1.516,2.253,2.253,0,0,0-.477-.775,1.9,1.9,0,0,0-.741-.347,5.2,5.2,0,0,0-1.1-.222c-.352-.02-.825-.03-1.406-.03h-.295c-.737,0-1.666.027-2.762.08l-.929.043c-.1.515-.181.907-.252,1.194l-2.2,11.063C248.712-21.926,249.244-21.919,249.63-21.919ZM49.639-34.874l1.009.12c.9.107,2.275.25,4.078.422,1.83.175,3.216.32,4.118.43l1.6.195L55.779-9.628a8.118,8.118,0,0,0-.139,1.4,1.983,1.983,0,0,0,.306,1.267,1.473,1.473,0,0,0,1.012.28,10.278,10.278,0,0,0,6.619-2.642l1.72-1.41.663,2.122c.217.694.538,1.71.981,3.106s.767,2.421.985,3.12l.326,1.044-.894.63a18.389,18.389,0,0,1-6.241,2.7,29.77,29.77,0,0,1-7.075.879c-3.3,0-5.762-.643-7.515-1.966a7.3,7.3,0,0,1-2.8-6.186,14.564,14.564,0,0,1,.289-2.673c.326-1.74.834-4.384,1.508-7.854q.473-2.434.842-4.316-.718.383-1.571.793l-1.2.577-.714-1.127c-.42-.663-1.044-1.689-1.856-3.049s-1.41-2.361-1.8-3.012l-.97-1.616,1.792-.582c4.776-1.552,7.841-3.518,9.108-5.845ZM56.881-31.1c-.691-.072-1.506-.154-2.441-.243-1.283-.123-2.354-.231-3.2-.322a12.886,12.886,0,0,1-3.535,3.31A25.5,25.5,0,0,1,42.74-25.9l.859,1.439q.63,1.056,1.1,1.83a11.855,11.855,0,0,0,2.775-1.794l3.5-3.5-.972,4.858c-.346,1.732-.864,4.37-1.539,7.84s-1.18,6.1-1.505,7.838a11.638,11.638,0,0,0-.237,2.116,4.406,4.406,0,0,0,1.607,3.792c1.2.9,3.117,1.36,5.708,1.36A26.767,26.767,0,0,0,60.4-.92a16.591,16.591,0,0,0,4.316-1.664c-.176-.557-.387-1.224-.637-2.013l-.36-1.136a12.575,12.575,0,0,1-6.763,2.051,4.179,4.179,0,0,1-3.215-1.243,4.7,4.7,0,0,1-1.1-3.3,11.118,11.118,0,0,1,.187-1.935l0-.021Zm225.736-3.772,1.009.12c.9.107,2.275.25,4.078.422,1.83.175,3.216.32,4.118.43l1.6.195-4.662,24.08a8.117,8.117,0,0,0-.139,1.4,1.982,1.982,0,0,0,.306,1.267,1.472,1.472,0,0,0,1.012.28,10.278,10.278,0,0,0,6.619-2.642l1.72-1.41.663,2.122c.217.694.538,1.71.981,3.106s.767,2.421.985,3.12l.326,1.044-.894.63a18.391,18.391,0,0,1-6.241,2.7,29.77,29.77,0,0,1-7.075.879c-3.3,0-5.762-.643-7.515-1.966a7.3,7.3,0,0,1-2.8-6.186,14.56,14.56,0,0,1,.289-2.673c.326-1.74.834-4.384,1.508-7.854q.473-2.432.842-4.316-.718.383-1.571.793l-1.2.577-.714-1.127c-.42-.663-1.045-1.689-1.856-3.049s-1.41-2.361-1.8-3.012l-.97-1.616,1.792-.582c4.776-1.552,7.841-3.518,9.108-5.845Zm7.242,3.772c-.691-.072-1.506-.154-2.441-.243-1.283-.123-2.354-.231-3.2-.322a12.885,12.885,0,0,1-3.535,3.31,25.5,25.5,0,0,1-4.967,2.454l.859,1.439q.63,1.056,1.1,1.83a11.855,11.855,0,0,0,2.775-1.794l3.5-3.5-.972,4.858c-.348,1.74-.866,4.378-1.539,7.84s-1.18,6.1-1.505,7.838a11.634,11.634,0,0,0-.236,2.116,4.406,4.406,0,0,0,1.607,3.792c1.2.9,3.116,1.36,5.708,1.36a26.767,26.767,0,0,0,6.36-.793A16.59,16.59,0,0,0,297.7-2.584c-.176-.557-.387-1.224-.637-2.013l-.36-1.136a12.575,12.575,0,0,1-6.763,2.051,4.179,4.179,0,0,1-3.215-1.243,4.7,4.7,0,0,1-1.1-3.3,11.115,11.115,0,0,1,.187-1.935l0-.021ZM88.581-34.6a13.229,13.229,0,0,1,4.12.648,12.307,12.307,0,0,1,2.659,1.1l.2.128.134-.483.322-1.157,1.2.062,3.77.2,3.766.2,1.729.089-4.562,23.236c-.4,1.96-.81,3.787-1.229,5.431-.425,1.667-.969,3.418-1.616,5.2a35.781,35.781,0,0,1-2.157,4.875A26.974,26.974,0,0,1,94.1,9.088a17.487,17.487,0,0,1-3.659,3.4,17.213,17.213,0,0,1-4.54,2.158,18.357,18.357,0,0,1-5.513.806,22.1,22.1,0,0,1-7.026-1.267,41.567,41.567,0,0,1-7.8-3.7l-1.2-.713.624-1.248c.367-.734.916-1.849,1.633-3.314s1.255-2.571,1.6-3.289L68.991.351l1.44,1C74.241,4,77.779,5.344,80.946,5.344a4.88,4.88,0,0,0,1.592-.262,8.547,8.547,0,0,0,1.519-.68,5.176,5.176,0,0,0,1.208-1.044c.5-.563.921-1.062,1.249-1.483A9.912,9.912,0,0,0,87.481.233l.183-.371q-.358.265-.713.494a14.469,14.469,0,0,1-3.384,1.527,13.9,13.9,0,0,1-4.26.662,8.635,8.635,0,0,1-4.1-.983,9.274,9.274,0,0,1-3.18-2.876,15.469,15.469,0,0,1-2.571-9.143A30.122,30.122,0,0,1,71.82-22.541a21.211,21.211,0,0,1,6.774-8.767A16.435,16.435,0,0,1,88.581-34.6Zm8.946,6.865-1.9-1.313c-.9-.622-1.539-1.055-1.9-1.286a10.14,10.14,0,0,0-1.962-.768,10.234,10.234,0,0,0-3.187-.5,13.318,13.318,0,0,0-8.2,2.7,18.255,18.255,0,0,0-5.809,7.552,27.147,27.147,0,0,0-2.12,10.887,12.563,12.563,0,0,0,2.017,7.405,5.633,5.633,0,0,0,4.84,2.6,10.9,10.9,0,0,0,3.342-.518,11.524,11.524,0,0,0,2.678-1.193A13.528,13.528,0,0,0,87.52-3.981a20.83,20.83,0,0,0,1.7-1.867c.376-.49.823-1.114,1.33-1.853l2.737-3.992v4.84a1.866,1.866,0,0,1-.061.462c-.021.083-.042.156-.065.225s-.039.11-.063.167a1.777,1.777,0,0,1-.062.185c-.231.776-.386,1.289-.475,1.565-.093.292-.3.879-.621,1.8a21.7,21.7,0,0,1-.852,2.139c-.211.434-.521,1.064-.921,1.875a12.589,12.589,0,0,1-1.293,2.16c-.368.471-.829,1.02-1.372,1.63a8.13,8.13,0,0,1-1.938,1.643,11.542,11.542,0,0,1-2.054.925,7.872,7.872,0,0,1-2.569.426,17.115,17.115,0,0,1-5.99-1.16,26.9,26.9,0,0,1-4.78-2.406l-.859,1.758q-.582,1.19-1.016,2.071c4.577,2.554,8.638,3.847,12.088,3.847A15.367,15.367,0,0,0,85,11.787a14.224,14.224,0,0,0,3.751-1.775,14.5,14.5,0,0,0,3.026-2.823,23.973,23.973,0,0,0,2.5-3.7A32.792,32.792,0,0,0,96.248-.974c.614-1.694,1.129-3.35,1.53-4.922.406-1.594.808-3.369,1.194-5.278L102.865-31l-2.042-.107-2.562-.134c-.214.8-.285,1.115-.309,1.239ZM123.316-34.6a13.229,13.229,0,0,1,4.12.648,12.307,12.307,0,0,1,2.659,1.1l.2.128.134-.483.322-1.157,1.2.062,3.77.2,3.766.2,1.729.089-4.562,23.236c-.4,1.96-.81,3.787-1.229,5.431-.425,1.667-.969,3.418-1.616,5.2a35.791,35.791,0,0,1-2.157,4.875,26.976,26.976,0,0,1-2.811,4.165,17.484,17.484,0,0,1-3.659,3.4,17.212,17.212,0,0,1-4.54,2.158,18.357,18.357,0,0,1-5.513.806,22.1,22.1,0,0,1-7.026-1.267,41.565,41.565,0,0,1-7.8-3.7l-1.2-.713.624-1.248c.367-.734.916-1.849,1.632-3.314s1.255-2.571,1.6-3.289l.765-1.579,1.441,1c3.81,2.649,7.348,3.992,10.515,3.992a4.88,4.88,0,0,0,1.592-.262,8.547,8.547,0,0,0,1.519-.68A5.176,5.176,0,0,0,120,3.357c.5-.563.921-1.062,1.249-1.483a9.912,9.912,0,0,0,.968-1.641l.183-.371q-.358.265-.713.494A14.471,14.471,0,0,1,118.3,1.883a13.9,13.9,0,0,1-4.26.662,8.635,8.635,0,0,1-4.1-.983,9.274,9.274,0,0,1-3.18-2.876,15.469,15.469,0,0,1-2.571-9.143,30.122,30.122,0,0,1,2.369-12.084,21.211,21.211,0,0,1,6.774-8.767A16.435,16.435,0,0,1,123.316-34.6Zm8.946,6.865-1.9-1.312c-.9-.622-1.538-1.054-1.9-1.286A10.14,10.14,0,0,0,126.5-31.1a10.234,10.234,0,0,0-3.187-.5,13.318,13.318,0,0,0-8.2,2.7,18.255,18.255,0,0,0-5.809,7.552,27.147,27.147,0,0,0-2.12,10.887A12.562,12.562,0,0,0,109.2-3.052a5.633,5.633,0,0,0,4.84,2.6,10.9,10.9,0,0,0,3.342-.518,11.528,11.528,0,0,0,2.678-1.193,13.53,13.53,0,0,0,2.193-1.815,20.841,20.841,0,0,0,1.7-1.867c.376-.49.823-1.114,1.33-1.853l2.737-3.992v4.84a1.866,1.866,0,0,1-.061.462c-.021.083-.042.156-.065.225s-.039.11-.063.167a1.777,1.777,0,0,1-.062.185c-.231.776-.386,1.289-.475,1.565-.093.292-.3.879-.621,1.8a21.7,21.7,0,0,1-.852,2.139c-.208.426-.517,1.057-.921,1.875a12.586,12.586,0,0,1-1.293,2.16c-.367.471-.829,1.019-1.372,1.63A8.13,8.13,0,0,1,120.3,6.993a11.542,11.542,0,0,1-2.054.925,7.872,7.872,0,0,1-2.569.426,17.115,17.115,0,0,1-5.99-1.16,26.9,26.9,0,0,1-4.78-2.406l-.859,1.758q-.582,1.19-1.016,2.071c4.577,2.554,8.638,3.847,12.088,3.847a15.367,15.367,0,0,0,4.613-.668,14.224,14.224,0,0,0,3.751-1.775,14.492,14.492,0,0,0,3.026-2.823,23.972,23.972,0,0,0,2.5-3.7,32.8,32.8,0,0,0,1.972-4.464c.614-1.694,1.129-3.35,1.53-4.922.406-1.594.808-3.369,1.194-5.278L137.6-31l-2.042-.107L133-31.246c-.214.8-.285,1.115-.309,1.24Zm189.3-6.865a13.227,13.227,0,0,1,4.12.648,12.3,12.3,0,0,1,2.659,1.1l.2.128q.062-.226.134-.483l.322-1.157,1.2.062,3.77.2,3.766.2,1.729.089-4.562,23.236c-.4,1.96-.81,3.787-1.229,5.431-.425,1.667-.969,3.418-1.616,5.2a35.785,35.785,0,0,1-2.157,4.875,26.973,26.973,0,0,1-2.811,4.165,17.485,17.485,0,0,1-3.659,3.4,17.21,17.21,0,0,1-4.54,2.158,18.357,18.357,0,0,1-5.513.806,22.1,22.1,0,0,1-7.026-1.267,41.565,41.565,0,0,1-7.8-3.7l-1.2-.713.624-1.248c.369-.738.918-1.853,1.632-3.314s1.255-2.571,1.6-3.289l.765-1.579,1.44,1c3.81,2.649,7.348,3.992,10.515,3.992a4.88,4.88,0,0,0,1.592-.262,8.551,8.551,0,0,0,1.518-.68,5.177,5.177,0,0,0,1.207-1.044c.5-.563.921-1.062,1.249-1.483a9.912,9.912,0,0,0,.968-1.641l.183-.371q-.358.266-.713.494a14.471,14.471,0,0,1-3.384,1.527,13.9,13.9,0,0,1-4.26.662,8.634,8.634,0,0,1-4.1-.983A9.274,9.274,0,0,1,305-1.315a15.469,15.469,0,0,1-2.571-9.143A30.122,30.122,0,0,1,304.8-22.541a21.211,21.211,0,0,1,6.774-8.767A16.435,16.435,0,0,1,321.558-34.6Zm8.946,6.865-1.9-1.313c-.9-.622-1.538-1.054-1.9-1.286a10.138,10.138,0,0,0-1.962-.768,10.232,10.232,0,0,0-3.187-.5,13.318,13.318,0,0,0-8.2,2.7,18.256,18.256,0,0,0-5.809,7.552,27.147,27.147,0,0,0-2.12,10.887,12.563,12.563,0,0,0,2.017,7.405,5.633,5.633,0,0,0,4.84,2.6,10.906,10.906,0,0,0,3.342-.518,11.527,11.527,0,0,0,2.678-1.193A13.53,13.53,0,0,0,320.5-3.981,20.849,20.849,0,0,0,322.2-5.848c.376-.49.823-1.114,1.33-1.853l2.737-3.992v4.84a1.866,1.866,0,0,1-.061.462c-.021.083-.042.157-.065.227-.018.054-.039.109-.063.165a1.781,1.781,0,0,1-.063.185c-.231.775-.386,1.288-.475,1.564s-.3.879-.621,1.8a21.707,21.707,0,0,1-.852,2.139c-.211.434-.521,1.064-.921,1.875a12.59,12.59,0,0,1-1.293,2.16c-.368.471-.829,1.02-1.372,1.63a8.127,8.127,0,0,1-1.938,1.643,11.538,11.538,0,0,1-2.053.925,7.873,7.873,0,0,1-2.569.426,17.115,17.115,0,0,1-5.99-1.16,26.9,26.9,0,0,1-4.78-2.406l-.859,1.758q-.581,1.189-1.016,2.071c4.577,2.554,8.638,3.847,12.088,3.847a15.367,15.367,0,0,0,4.613-.668,14.223,14.223,0,0,0,3.75-1.775,14.5,14.5,0,0,0,3.026-2.823,23.973,23.973,0,0,0,2.5-3.7,32.792,32.792,0,0,0,1.972-4.464c.614-1.694,1.129-3.35,1.53-4.922.406-1.594.808-3.369,1.194-5.278L335.843-31l-2.042-.107-2.562-.134c-.214.8-.285,1.115-.309,1.239ZM194.359-34.175a18.261,18.261,0,0,1,5.178.685,11.851,11.851,0,0,1,3.863,1.855,10.529,10.529,0,0,1,2.482,2.712,10.591,10.591,0,0,1,1.369,3.114,12.926,12.926,0,0,1,.371,3.1A11.11,11.11,0,0,1,207-18.848l0,.006a12.275,12.275,0,0,1-6.96,6.89c-2.994,1.318-7.354,2.346-13.3,3.133a3.73,3.73,0,0,0,.59.735,3.418,3.418,0,0,0,2.534.943,15.75,15.75,0,0,0,9.534-2.954l1.36-1L205.7-2.386l-1.36.724c-1.379.734-2.237,1.185-2.623,1.377s-1.065.519-2.078,1a12.139,12.139,0,0,1-2.552.965c-.473.1-1.189.25-2.127.455a18.628,18.628,0,0,1-3.119.41c-.979.044-2.149.067-3.476.067-4.24,0-7.565-1.27-9.883-3.774-2.287-2.471-3.447-5.852-3.447-10.047a28.374,28.374,0,0,1,.517-5.192l0-.01a27.18,27.18,0,0,1,2.308-6.919,22.273,22.273,0,0,1,3.937-5.62,17.2,17.2,0,0,1,5.615-3.841A17.556,17.556,0,0,1,194.359-34.175ZM204.195-19.9a8.166,8.166,0,0,0,.429-2.815,9.923,9.923,0,0,0-.284-2.377,7.608,7.608,0,0,0-.99-2.227,7.538,7.538,0,0,0-1.778-1.941,8.92,8.92,0,0,0-2.888-1.357,15.285,15.285,0,0,0-4.325-.561,14.574,14.574,0,0,0-5.767,1.141,14.219,14.219,0,0,0-4.642,3.172,19.28,19.28,0,0,0-3.4,4.866,24.182,24.182,0,0,0-2.048,6.148,25.373,25.373,0,0,0-.466,4.637c0,3.415.891,6.11,2.649,8.009S184.945-.39,188.362-.39c1.282,0,2.406-.021,3.34-.064A15.62,15.62,0,0,0,194.318-.8c.951-.208,1.68-.363,2.166-.463A9.522,9.522,0,0,0,198.355-2c.979-.463,1.658-.788,2.018-.969.216-.108.616-.316,1.194-.621l-1.789-3.157a18.977,18.977,0,0,1-9.908,2.605,6.358,6.358,0,0,1-4.643-1.809,5.7,5.7,0,0,1-1.838-4.147v-1.332l1.322-.158c6.419-.765,11.171-1.812,14.123-3.111A9.274,9.274,0,0,0,204.195-19.9Zm-116.3-7.92c2.984,0,5.629,1.438,7.863,4.275l.405.515-.1.647c-.067.422-.173,1.053-.315,1.874s-.244,1.424-.308,1.829l-.016.1-.031.1a17.521,17.521,0,0,1-3.216,5.156A45.807,45.807,0,0,1,86.617-7.54c-2.279,1.984-4,2.908-5.409,2.908a3.748,3.748,0,0,1-3.141-1.544,7.362,7.362,0,0,1-.981-4.38c0-5.1.994-9.237,2.956-12.309C82.14-26.151,84.781-27.818,87.893-27.818Zm5.095,5.634a6.65,6.65,0,0,0-5.095-2.634c-2.049,0-3.79,1.167-5.322,3.567-1.648,2.582-2.484,6.18-2.484,10.695,0,1.964.33,2.51.4,2.6a.772.772,0,0,0,.726.324c.158,0,1.066-.1,3.439-2.171a42.8,42.8,0,0,0,5.191-5.4,15.549,15.549,0,0,0,2.654-4.062c.067-.417.166-1.007.3-1.757C92.866-21.468,92.932-21.857,92.987-22.184Zm29.641-5.634c2.984,0,5.629,1.438,7.863,4.275l.405.515-.1.647c-.067.422-.173,1.053-.315,1.874s-.244,1.424-.308,1.829l-.016.1-.031.1a17.521,17.521,0,0,1-3.216,5.156,45.8,45.8,0,0,1-5.557,5.777c-2.279,1.984-4,2.908-5.409,2.908A3.747,3.747,0,0,1,112.8-6.176a7.361,7.361,0,0,1-.981-4.38c0-5.1.994-9.237,2.955-12.309C116.875-26.151,119.517-27.818,122.628-27.818Zm5.095,5.634a6.65,6.65,0,0,0-5.095-2.634c-2.049,0-3.79,1.167-5.322,3.567-1.648,2.582-2.484,6.18-2.484,10.695,0,1.963.33,2.51.4,2.6a.772.772,0,0,0,.726.324c.158,0,1.066-.1,3.439-2.171a42.79,42.79,0,0,0,5.192-5.4,15.549,15.549,0,0,0,2.654-4.062c.067-.417.166-1.007.3-1.757C127.6-21.468,127.668-21.857,127.722-22.184ZM320.87-27.818c2.984,0,5.629,1.438,7.863,4.275l.406.515-.1.647c-.066.42-.172,1.051-.315,1.874-.14.806-.243,1.422-.308,1.829l-.016.1-.031.1a17.522,17.522,0,0,1-3.216,5.156,45.805,45.805,0,0,1-5.557,5.777c-2.279,1.984-4,2.908-5.409,2.908a3.748,3.748,0,0,1-3.141-1.544,7.362,7.362,0,0,1-.981-4.38c0-5.1.994-9.237,2.956-12.309C315.118-26.151,317.759-27.818,320.87-27.818Zm5.095,5.634a6.65,6.65,0,0,0-5.095-2.634c-2.049,0-3.79,1.167-5.322,3.567-1.648,2.582-2.484,6.18-2.484,10.695,0,1.964.33,2.51.4,2.6a.772.772,0,0,0,.726.324c.158,0,1.066-.1,3.439-2.171a42.79,42.79,0,0,0,5.192-5.4,15.552,15.552,0,0,0,2.654-4.062c.067-.418.167-1.009.3-1.757C325.844-21.468,325.91-21.857,325.965-22.184ZM193.147-27.523a6.584,6.584,0,0,1,4.567,1.425,4.755,4.755,0,0,1,1.619,3.582,5.222,5.222,0,0,1-2.218,4.009c-.487.4-1.415.914-4.628,1.737a53.134,53.134,0,0,1-6.762,1.281l-2.041.247.388-2.019a15.222,15.222,0,0,1,3.293-7.275A7.642,7.642,0,0,1,193.147-27.523Zm2.069,6.693a2.465,2.465,0,0,0,1.117-1.687,1.74,1.74,0,0,0-.642-1.366,3.893,3.893,0,0,0-2.544-.64,4.751,4.751,0,0,0-3.524,1.961,10.843,10.843,0,0,0-2.068,3.776c1.386-.234,2.787-.532,4.188-.891A13.11,13.11,0,0,0,195.216-20.83Z" transform="translate(4.921 65.971)" fill="#546466"/></g></svg>