<?xml version="1.0" encoding="UTF-8"?>
<svg xmlns="http://www.w3.org/2000/svg" id="icons" viewBox="0 0 60 60" width="512" height="512"><path d="M46.39,9.28a23.641,23.641,0,0,1,11.036-.73,2,2,0,0,1,1.56,2.2c-.34,2.75-1.55,7.98-5.908,9.88Z" fill="#cfd2d6"/><path d="M48.919,12.52a10.558,10.558,0,0,1,4.909-.42.958.958,0,0,1,.829,1.25,5.811,5.811,0,0,1-3.109,3.66Z" fill="#b5bcc1"/><path d="M13.629,9.282C11.354,7.548,9.858,4.405,9.1,2.479A1.017,1.017,0,0,1,10.292,1.04a25.8,25.8,0,0,1,8.677,3.522Z" fill="#f7cf96"/><path d="M41.027,4.557A25.8,25.8,0,0,1,49.7,1.035,1.017,1.017,0,0,1,50.9,2.474c-.76,1.926-2.256,5.069-4.531,6.8Z" fill="#f7cf96"/><path d="M6.914,20.626c-4.358-1.9-5.56-7.126-5.9-9.876a2,2,0,0,1,1.56-2.2,23.641,23.641,0,0,1,11.036.73Z" fill="#677577" fill-rule="evenodd"/><path d="M8.452,17.01a5.811,5.811,0,0,1-3.109-3.66.958.958,0,0,1,.829-1.25,10.558,10.558,0,0,1,4.909.42Z" fill="#546466" fill-rule="evenodd"/><path d="M20.74,3.48A19.181,19.181,0,0,1,30,1C43.807,1,55,17.193,55,31A25,25,0,0,1,5,31,30.861,30.861,0,0,1,6.914,20.626Z" fill="#e0e3e8"/><path d="M21.937,49.978A8,8,0,1,1,6.606,47.953a1,1,0,0,1,1.433-.466l3.882,2.288A1,1,0,0,0,13.4,48.664L12.27,44.3a1,1,0,0,1,.839-1.247,7.942,7.942,0,0,1,3.611.431A8.038,8.038,0,0,1,21.937,49.978Z" fill="#546466" fill-rule="evenodd"/><path d="M9,26.41v9.57l-7.94-.05q.06-.285.15-.57l.46-1.38,2.69-8.09.11-.32A2.318,2.318,0,0,1,7.01,24,2.4,2.4,0,0,1,9,26.41Z" fill="#cfd2d6"/><path d="M9,35.98v1a4.01,4.01,0,0,1-4,4,.989.989,0,0,1-1.28.95A3.988,3.988,0,0,1,1,38.15V36.63a4.049,4.049,0,0,1,.06-.7c.25-.2,1.35-.95,3.94-.95C8,34.98,9,35.98,9,35.98Z" fill="#546466" fill-rule="evenodd"/><path d="M38.063,49.978a8,8,0,1,0,15.331-2.025,1,1,0,0,0-1.433-.466l-3.882,2.288A1,1,0,0,1,46.6,48.664L47.73,44.3a1,1,0,0,0-.839-1.247,7.942,7.942,0,0,0-3.611.431A8.038,8.038,0,0,0,38.063,49.978Z" fill="#546466" fill-rule="evenodd"/><path d="M30,8.78V20L18.08,24.81c-4.2-4.72-11.17-4.18-11.17-4.18C9.49,13.47,14.49,6.91,20.73,3.48h.01a18.4,18.4,0,0,0,6.65,2.33A3.021,3.021,0,0,1,30,8.78Z" fill="#546466" fill-rule="evenodd"/><path d="M25,14a4,4,0,1,1-7.05-2.59c.28.11.63.24,1.03.38a22.684,22.684,0,0,0,4.8,1.08q.525.06,1.08.09A3.955,3.955,0,0,1,25,14Z" fill="#fff"/><path d="M35,14a4,4,0,1,0,7.05-2.59c-.28.11-.63.24-1.03.38a22.684,22.684,0,0,1-4.8,1.08q-.525.06-1.08.09A3.955,3.955,0,0,0,35,14Z" fill="#fff"/><polygon points="26.36 40.72 23.45 34.91 36.55 34.91 33.64 40.72 26.36 40.72" fill="#546466" fill-rule="evenodd"/><ellipse cx="30" cy="28" rx="13" ry="8" fill="#f7cf96"/><ellipse cx="25" cy="28" rx="2" ry="3" fill="#d6ae7a"/><ellipse cx="35" cy="28" rx="2" ry="3" fill="#d6ae7a"/><path d="M54.13,24.13A2.185,2.185,0,0,0,52.99,24,2.4,2.4,0,0,0,51,26.41v2.72a11.59,11.59,0,0,1-5-9.63,11.794,11.794,0,0,1,2.61-7.43A35.2,35.2,0,0,1,54.13,24.13Z" fill="#546466" fill-rule="evenodd"/><path d="M58.94,35.93q-.06-.285-.15-.57l-3.26-9.79A2.318,2.318,0,0,0,52.99,24,2.4,2.4,0,0,0,51,26.41v9.57Z" fill="#cfd2d6"/><path d="M51,35.98v1a4.01,4.01,0,0,0,4,4,.989.989,0,0,0,1.28.95A3.988,3.988,0,0,0,59,38.15V36.63a4.049,4.049,0,0,0-.06-.7c-.25-.2-1.35-.95-3.94-.95C52,34.98,51,35.98,51,35.98Z" fill="#546466" fill-rule="evenodd"/><path d="M33.64,40.72l-.67,1.34a3.243,3.243,0,0,1-5.94,0l-.67-1.34a9.561,9.561,0,0,1,7.28,0Z" fill="#cd596b"/><path d="M59.93,35.8a4.918,4.918,0,0,0-.187-.759l-3.265-9.8a3.311,3.311,0,0,0-1.5-1.815c-.2-.774-.428-1.54-.679-2.3,4.1-2.319,5.322-7.354,5.681-10.269A2.978,2.978,0,0,0,57.63,7.571a22.673,22.673,0,0,0-8.287-.022,22.349,22.349,0,0,0,2.473-4.677A2.061,2.061,0,0,0,51.533.708,2.017,2.017,0,0,0,49.526.051a26.434,26.434,0,0,0-8.481,3.341A23.283,23.283,0,0,0,38.773,2.1,1,1,0,0,0,37.9,3.9a26.914,26.914,0,0,1,9.473,8.167A12.845,12.845,0,0,0,45,19.5a12.581,12.581,0,0,0,5,10.118v7.36a4.992,4.992,0,0,0,1.857,3.884,24.072,24.072,0,0,1-3.708,5.813l.549-2.128a2.017,2.017,0,0,0-.293-1.649,1.973,1.973,0,0,0-1.4-.842,8.911,8.911,0,0,0-4.061.485,8.972,8.972,0,0,0-5.495,11.237,24.067,24.067,0,0,1-14.89,0,8.972,8.972,0,0,0-5.5-11.237A8.911,8.911,0,0,0,13,42.056a1.973,1.973,0,0,0-1.4.842,2.017,2.017,0,0,0-.293,1.649l.549,2.127a24.047,24.047,0,0,1-3.708-5.812A4.992,4.992,0,0,0,10,36.978V26.413a3.392,3.392,0,0,0-2.781-3.386c.134-.474.258-.956.408-1.414,1.63.01,6.077.342,9.185,3.337A6.338,6.338,0,0,0,16,28c0,3.323,2.676,6.163,6.738,7.722l3.4,6.785a4.241,4.241,0,0,0,7.728,0l3.4-6.785C41.324,34.163,44,31.323,44,28c0-4.829-5.636-8.648-13-8.969V8.78a4,4,0,0,0-3.467-3.96,17.656,17.656,0,0,1-4.474-1.279A17.748,17.748,0,0,1,30,2a17.186,17.186,0,0,1,4.725.673A1,1,0,0,0,35.275.75,19.149,19.149,0,0,0,30,0,20.537,20.537,0,0,0,18.922,3.38a26.3,26.3,0,0,0-8.4-3.312A2.04,2.04,0,0,0,8.463.713a2.046,2.046,0,0,0-.295,2.134,22.529,22.529,0,0,0,2.481,4.7,22.713,22.713,0,0,0-8.278.022,2.983,2.983,0,0,0-2.35,3.3C.38,13.781,1.6,18.814,5.7,21.134q-.384,1.149-.68,2.3a3.317,3.317,0,0,0-1.5,1.818L.256,35.046a5.018,5.018,0,0,0-.187.76l0,.014A4.934,4.934,0,0,0,0,36.626v1.521a4.983,4.983,0,0,0,3.4,4.729,1.927,1.927,0,0,0,1.747-.263,2.008,2.008,0,0,0,.61-.693,4.989,4.989,0,0,0,.6-.148,26.075,26.075,0,0,0,3.487,5.619l-1.3-.766a2.016,2.016,0,0,0-1.662-.173,1.978,1.978,0,0,0-1.2,1.118,9.026,9.026,0,0,0-.389,5.722,8.918,8.918,0,0,0,7.069,6.562A9.368,9.368,0,0,0,14,60a8.939,8.939,0,0,0,7.718-4.392,25.748,25.748,0,0,0,8.263,1.382h.03a25.748,25.748,0,0,0,8.263-1.382A8.939,8.939,0,0,0,46,60a9.388,9.388,0,0,0,1.644-.146,8.918,8.918,0,0,0,7.068-6.562,9.023,9.023,0,0,0-.39-5.723,1.975,1.975,0,0,0-1.2-1.117,2.019,2.019,0,0,0-1.663.174l-1.3.765a26.1,26.1,0,0,0,3.487-5.619,4.989,4.989,0,0,0,.6.148,2.008,2.008,0,0,0,.61.693,1.937,1.937,0,0,0,1.128.365,1.97,1.97,0,0,0,.621-.1A4.984,4.984,0,0,0,60,38.147V36.626a4.921,4.921,0,0,0-.066-.8ZM6.312,13.09a10.934,10.934,0,0,1,3.181.046c-.517.82-1,1.661-1.448,2.515A5.522,5.522,0,0,1,6.312,13.09ZM30,43a2.365,2.365,0,0,1-2.075-1.388l-.158-.315a9.147,9.147,0,0,1,4.466,0l-.158.315A2.365,2.365,0,0,1,30,43Zm3.147-3.528a11.122,11.122,0,0,0-6.294,0L25.367,36.5a21.843,21.843,0,0,0,9.266,0ZM42,28c0,3.794-5.495,7-12,7s-12-3.206-12-7,5.5-7,12-7S42,24.206,42,28ZM27.244,6.8A2.012,2.012,0,0,1,29,8.78V19.031c-4.724.206-8.726,1.852-10.995,4.282a15.4,15.4,0,0,0-9.653-3.686A29.393,29.393,0,0,1,20.811,4.675,19.74,19.74,0,0,0,27.244,6.8ZM9.984,2.007l.13.017a23.5,23.5,0,0,1,7,2.619,29.388,29.388,0,0,0-3.567,3.235,16.815,16.815,0,0,1-3.517-5.766C10.023,2.1,9.988,2.018,9.984,2.007ZM2.007,10.634a1,1,0,0,1,.769-1.105,21.969,21.969,0,0,1,9.071.3q-.6.744-1.157,1.521a12.2,12.2,0,0,0-4.643-.247,2.019,2.019,0,0,0-1.484.957,1.874,1.874,0,0,0-.16,1.627,7.316,7.316,0,0,0,2.751,3.761c-.268.583-.517,1.171-.752,1.761C3.286,17.235,2.308,13.072,2.007,10.634Zm3.41,15.253a1.322,1.322,0,0,1,1.265-.909,1.412,1.412,0,0,1,.193.013A1.406,1.406,0,0,1,8,26.413v7.964a10.091,10.091,0,0,0-3-.4,10.94,10.94,0,0,0-2.359.237ZM2,38.147V36.626c0-.037.007-.073.009-.109A6.714,6.714,0,0,1,5,35.978a6.775,6.775,0,0,1,3,.539v.461a3,3,0,0,1-2,2.815v-.815a1,1,0,0,0-2,0v1.985A2.982,2.982,0,0,1,2,38.147ZM18.819,56.078A6.991,6.991,0,0,1,7.531,48.349l3.882,2.288a2,2,0,0,0,2.953-2.224L13.22,44.044a6.939,6.939,0,0,1,3.16.378,6.994,6.994,0,0,1,2.439,11.656ZM52.47,48.334a7,7,0,1,1-8.85-3.912A6.938,6.938,0,0,1,45.981,44a6.786,6.786,0,0,1,.78.045l-1.127,4.367a2,2,0,0,0,2.953,2.223Zm4.889-14.119A10.94,10.94,0,0,0,55,33.978a10.091,10.091,0,0,0-3,.4V26.413a1.315,1.315,0,0,1,1.318-1.435,1.32,1.32,0,0,1,1.264.906Zm-5.4-18.572c-.453-.859-.941-1.694-1.456-2.507a10.848,10.848,0,0,1,3.179-.039A5.489,5.489,0,0,1,51.962,15.643Zm5.263-6.114a1,1,0,0,1,.769,1.1c-.3,2.444-1.28,6.606-4.394,8.586q-.352-.893-.751-1.762a7.3,7.3,0,0,0,2.745-3.75,1.88,1.88,0,0,0-.157-1.636,2.023,2.023,0,0,0-1.489-.958,12.187,12.187,0,0,0-4.644.249q-.562-.78-1.16-1.522A21.894,21.894,0,0,1,57.225,9.529ZM42.865,4.648a23.522,23.522,0,0,1,7.017-2.629c.019,0,.1-.025.117-.029l-.03.116a16.774,16.774,0,0,1-3.528,5.777A29.748,29.748,0,0,0,42.865,4.648ZM47,19.5a10.868,10.868,0,0,1,1.593-5.662,34.392,34.392,0,0,1,4.2,9.185,3.394,3.394,0,0,0-2.8,3.39v.556A10.681,10.681,0,0,1,47,19.5ZM58,38.147a2.964,2.964,0,0,1-2,2.816V38.978a1,1,0,0,0-2,0v.815a3,3,0,0,1-2-2.815V36.52a6.741,6.741,0,0,1,3-.542,6.714,6.714,0,0,1,2.991.539c0,.036.009.072.009.109Z" fill="#373737"/><path d="M25,24c-1.683,0-3,1.757-3,4s1.317,4,3,4,3-1.757,3-4S26.683,24,25,24Zm0,6c-.408,0-1-.779-1-2s.592-2,1-2,1,.779,1,2S25.408,30,25,30Z" fill="#373737"/><path d="M21,19a5.006,5.006,0,0,0,5-5,1,1,0,0,0,0-2c-.34,0-.674-.012-1-.031h-.008a21.651,21.651,0,0,1-7.542-1.864.995.995,0,0,0-.941,1.752A4.962,4.962,0,0,0,21,19Zm3-5a3,3,0,0,1-6,0,2.961,2.961,0,0,1,.341-1.371c.475.17,1.032.35,1.659.524V14.2a1,1,0,1,0,2,0v-.586c.627.118,1.29.217,1.986.285C23.988,13.933,24,13.966,24,14Z" fill="#373737"/><path d="M35,32c1.683,0,3-1.757,3-4s-1.317-4-3-4-3,1.757-3,4S33.317,32,35,32Zm0-6c.408,0,1,.779,1,2s-.592,2-1,2-1-.779-1-2S34.592,26,35,26Z" fill="#373737"/><path d="M43.9,10.554a1,1,0,0,0-1.341-.449,21.647,21.647,0,0,1-7.546,1.864h0c-.331.019-.665.031-1.006.031a1,1,0,0,0,0,2A5,5,0,1,0,43.5,11.857.994.994,0,0,0,43.9,10.554ZM39,17a3,3,0,0,1-3-3c0-.034.012-.067.014-.1.7-.068,1.359-.167,1.986-.285V14.2a1,1,0,1,0,2,0V13.153c.627-.174,1.184-.354,1.659-.524A2.961,2.961,0,0,1,42,14,3,3,0,0,1,39,17Z" fill="#373737"/></svg>
