<svg xmlns="http://www.w3.org/2000/svg" xmlns:xlink="http://www.w3.org/1999/xlink" width="350" height="100" viewBox="0 0 350 100">
  <defs>
    <clipPath id="clip-uruk-hai-logo">
      <rect width="350" height="100"/>
    </clipPath>
  </defs>
  <g id="uruk-hai-logo" clip-path="url(#clip-uruk-hai-logo)">
    <path id="Path_1" data-name="Path 1" d="M15.824-14.276q-.344,6.192,3.956,5.5,4.816-.774,12.728-8.17l1.2-1.2V-47.3h11.61V0H33.712V-6.794q-1.29,2.322-6.278,5.031A21.84,21.84,0,0,1,16.856.946Q4.214.946,4.214-14.276V-47.3h11.61ZM57.706-47.3H68.714v4.644a10.977,10.977,0,0,1,3.612-3.655,9.87,9.87,0,0,1,5.762-1.935,17.035,17.035,0,0,1,7.052,1.505,16.663,16.663,0,0,1,4.9,3.053L91.5-42.226l-7.74,7.482q-3.1-4.042-5.418-4.042-4.472,0-9.03,9.632V0H57.706Zm48.418,33.024q-.344,6.192,3.956,5.5,4.816-.774,12.728-8.17l1.2-1.2V-47.3h11.61V0h-11.61V-6.794q-1.29,2.322-6.278,5.031A21.84,21.84,0,0,1,107.156.946q-12.642,0-12.642-15.222V-47.3h11.61ZM192.9,0H180q-2.666-.774-13.674-13.5v.086q-6.278-7.052-6.622-7.4V0H148.178V-70.52H159.7v36.378q10.492-7.482,13.416-13.158h11.524q-1.806,7.052-17.8,19.264a12.13,12.13,0,0,1,2.838,2.494Q187.738-4.3,191.78-.86A8.452,8.452,0,0,0,192.9,0Zm38.27,0h-11.61V-70.52h11.61v28.638q8.514-6.364,16.942-6.364,12.556,0,12.556,15.222V0H249.142V-33.024q0-8.772-9.288-3.182a41.072,41.072,0,0,0-8.686,7.052Zm44.548-31.992-4.9-8.342q13.846-7.912,24.252-7.912a14.064,14.064,0,0,1,6.751,1.505,9.371,9.371,0,0,1,4.042,3.913,20.563,20.563,0,0,1,1.763,4.515,17.834,17.834,0,0,1,.516,4.257v23.822q0,2.924,5.16,5.332l-7.052,6.364q-5.762-2.236-7.74-5.418a22.568,22.568,0,0,1-14.1,4.9,19.727,19.727,0,0,1-2.408-.172,19.011,19.011,0,0,1-3.7-.989,16.38,16.38,0,0,1-4.171-2.15A10.981,10.981,0,0,1,270.9-6.407a13.583,13.583,0,0,1-1.376-6.235,14.766,14.766,0,0,1,3.827-10.148q3.827-4.3,14.233-5.848,7.74-1.032,9.03-1.376v-4.042q0-4.9-2.58-4.9Q288.874-38.958,275.716-31.992Zm8.6,24.252a11.549,11.549,0,0,0,6.45-1.591,19.992,19.992,0,0,0,5.848-4.687V-21.07q-.344.086-4.9.688l-2.752.43q-8,1.462-8,7.31Q280.962-8.17,284.316-7.74ZM321.038-47.3h11.524V0H321.038Zm1.118-9.2a5.132,5.132,0,0,1-1.892-4.042,5.132,5.132,0,0,1,1.892-4.042,6.98,6.98,0,0,1,4.73-1.634,6.7,6.7,0,0,1,4.6,1.634,5.181,5.181,0,0,1,1.849,4.042,5.181,5.181,0,0,1-1.849,4.042,6.7,6.7,0,0,1-4.6,1.634A6.98,6.98,0,0,1,322.156-56.5Z" transform="translate(5.5 84)" fill="#292a2b" stroke="#eb7526" stroke-width="1"/>
  </g>
</svg>
