<?xml version="1.0" encoding="iso-8859-1"?>
<!-- Generator: Adobe Illustrator 19.0.0, SVG Export Plug-In . SVG Version: 6.00 Build 0)  -->
<svg version="1.1" id="Capa_1" xmlns="http://www.w3.org/2000/svg" xmlns:xlink="http://www.w3.org/1999/xlink" x="0px" y="0px"
	 viewBox="0 0 512 512" style="enable-background:new 0 0 512 512;" xml:space="preserve">
<circle style="fill:#F2F2F4;" cx="256" cy="256" r="256"/>
<path style="fill:#DFDFE1;" d="M256,0v512c141.385,0,256-114.615,256-256S397.385,0,256,0z"/>
<path style="fill:#68D0E8;" d="M194.401,284.977C168.121,265.875,151,234.902,151,200c0-57.897,47.103-105,105-105
	s105,47.103,105,105c0,34.902-17.121,65.875-43.401,84.977c64.211,21.433,113.664,75.415,128.677,142.272
	C487.128,381.888,512,321.852,512,256C512,114.615,397.385,0,256,0S0,114.615,0,256c0,65.852,24.872,125.888,65.724,171.249
	C80.737,360.392,130.19,306.41,194.401,284.977z"/>
<path style="fill:#35A2DD;" d="M256,0v95c57.897,0,105,47.103,105,105c0,34.902-17.121,65.875-43.401,84.977
	c64.211,21.433,113.664,75.415,128.677,142.272C487.128,381.888,512,321.852,512,256C512,114.615,397.385,0,256,0z"/>
<g>
</g>
<g>
</g>
<g>
</g>
<g>
</g>
<g>
</g>
<g>
</g>
<g>
</g>
<g>
</g>
<g>
</g>
<g>
</g>
<g>
</g>
<g>
</g>
<g>
</g>
<g>
</g>
<g>
</g>
</svg>
