<svg xmlns="http://www.w3.org/2000/svg" xmlns:xlink="http://www.w3.org/1999/xlink" width="350" height="100" viewBox="0 0 350 100"><defs><clipPath id="b"><rect width="350" height="100"/></clipPath></defs><g id="a" clip-path="url(#b)"><text transform="translate(4.5 72.5)" fill="#546466" font-size="81" font-family="Junction-Bold, Junction" font-weight="700"><tspan x="0" y="0">plum pig</tspan></text><path d="M314.847,21.317a26.323,26.323,0,0,1-7.772-1.126,23.871,23.871,0,0,1-6.815-3.381c-4.251-3.028-6.406-6.667-6.406-10.816V5.985a16.337,16.337,0,0,1,1.4-7.193A14.658,14.658,0,0,1,299.1-5.562a6.153,6.153,0,0,1-2.73-5.13,7.533,7.533,0,0,1,1.248-3.885,19.174,19.174,0,0,1,3.19-3.785,15.033,15.033,0,0,1-4.007-5.2,17.316,17.316,0,0,1-1.484-7.3,12.623,12.623,0,0,1,1.983-6.953,14.619,14.619,0,0,1,5.031-4.82,26.555,26.555,0,0,1,6.151-2.6,22.787,22.787,0,0,1,6.046-.869,20.908,20.908,0,0,1,4.164.448,19.35,19.35,0,0,1,12.36-4.255,26.727,26.727,0,0,1,7.111,1.4l.428.13-1.724,9.348-.546-.182a18.947,18.947,0,0,0-5.269-1.189,11.051,11.051,0,0,0-1.529.152,13.116,13.116,0,0,1,4.135,9.392,16.953,16.953,0,0,1-1.926,8.3,12.387,12.387,0,0,1-5.107,5.142,26.593,26.593,0,0,1-6.027,2.311,26.1,26.1,0,0,1-6.07.7,35.161,35.161,0,0,1-3.652-.139,8.978,8.978,0,0,0-2.324,2.63,14.707,14.707,0,0,1,2.831-.2c.49,0,1.034.011,1.617.032.175,0,.474.014.912.041.523.033.712.04.779.04h.025a75.814,75.814,0,0,1,8.481.857,40.152,40.152,0,0,1,7.505,2.05,13.043,13.043,0,0,1,6.058,4.383,11.6,11.6,0,0,1,2.163,7.061,18.127,18.127,0,0,1-1.543,7.527,17.876,17.876,0,0,1-4.622,6.094,20.134,20.134,0,0,1-7.577,4.021A36.513,36.513,0,0,1,314.847,21.317ZM294.854,6c0,3.8,2.016,7.168,5.987,10a23.628,23.628,0,0,0,14.006,4.322c7.562,0,13.365-1.716,17.248-5.1a16.4,16.4,0,0,0,5.823-12.867,10.623,10.623,0,0,0-1.968-6.466,12.063,12.063,0,0,0-5.606-4.041,39.149,39.149,0,0,0-7.318-2A74.779,74.779,0,0,0,314.671-11c-.083,0-.266-.006-.827-.041-.42-.026-.709-.04-.86-.04h-.019c-.574-.021-1.109-.032-1.589-.032-2.485,0-3.111.286-3.265.409l-.867.694.055-1.109c.062-1.238,1.075-2.654,3.1-4.329l.168-.139.217.029a31.637,31.637,0,0,0,3.741.158,25.1,25.1,0,0,0,5.837-.675,25.6,25.6,0,0,0,5.8-2.225,11.405,11.405,0,0,0,4.694-4.74,15.972,15.972,0,0,0,1.8-7.817c0-3.455-1.526-6.6-4.535-9.351l-.745-.681.993-.18a16.628,16.628,0,0,1,2.681-.332,17.994,17.994,0,0,1,5.039,1.062l1.354-7.34a24.65,24.65,0,0,0-6.393-1.227,18.379,18.379,0,0,0-11.915,4.181l-.186.152-.235-.05a20.116,20.116,0,0,0-4.188-.475,21.79,21.79,0,0,0-5.78.832,25.556,25.556,0,0,0-5.918,2.5,13.629,13.629,0,0,0-4.689,4.495,11.639,11.639,0,0,0-1.824,6.412,14.6,14.6,0,0,0,5.561,12.081l.462.365-.435.4c-3.009,2.75-4.535,5.215-4.535,7.326a5.328,5.328,0,0,0,2.845,4.68l.611.386-.576.436a14.386,14.386,0,0,0-4.113,4.454A15.41,15.41,0,0,0,294.854,6ZM234.428,20.183H222.655V-45.05h11.773v4.8a16.871,16.871,0,0,1,4.434-3.522,16.308,16.308,0,0,1,8.269-2.173,15.075,15.075,0,0,1,7.2,1.73,16.823,16.823,0,0,1,5.679,5.162,25.374,25.374,0,0,1,3.656,7.447,30.045,30.045,0,0,1,1.216,8.68,35.505,35.505,0,0,1-1.337,10.157,21.486,21.486,0,0,1-4.045,7.7A17.369,17.369,0,0,1,253.06-.22a21.148,21.148,0,0,1-8.44,1.611A15.005,15.005,0,0,1,241.6,1.1a9.159,9.159,0,0,1-2.827-1.113c-.865-.513-1.5-.9-1.878-1.143A19.213,19.213,0,0,1,234.981-2.7l-.553-.455Zm-10.773-1h9.773V-5.272l2.206,1.817A18.806,18.806,0,0,0,237.438-2c.372.239.993.617,1.848,1.125A8.165,8.165,0,0,0,241.8.118a14.007,14.007,0,0,0,2.815.273c5.972,0,10.722-2.052,14.116-6.1,3.416-4.073,5.148-9.865,5.148-17.215A26.134,26.134,0,0,0,259.2-38.468c-3.072-4.3-7.132-6.473-12.067-6.473a15.321,15.321,0,0,0-7.769,2.039,13.825,13.825,0,0,0-5.008,4.445l-.926,1.511v-7.1h-9.773Zm-207.2,1H4.684V-45.05H16.457v4.8a16.871,16.871,0,0,1,4.434-3.522,16.308,16.308,0,0,1,8.269-2.173,15.075,15.075,0,0,1,7.2,1.73,16.823,16.823,0,0,1,5.679,5.162A25.375,25.375,0,0,1,45.7-31.6a30.046,30.046,0,0,1,1.216,8.68,35.505,35.505,0,0,1-1.337,10.157,21.486,21.486,0,0,1-4.045,7.7A17.369,17.369,0,0,1,35.089-.22a21.148,21.148,0,0,1-8.44,1.611A15.005,15.005,0,0,1,23.632,1.1,9.159,9.159,0,0,1,20.8-.016c-.865-.514-1.5-.9-1.878-1.143A19.215,19.215,0,0,1,17.01-2.7l-.553-.455Zm-10.773-1h9.773V-5.272l2.206,1.817A18.817,18.817,0,0,0,19.467-2c.371.239.993.617,1.848,1.125a8.165,8.165,0,0,0,2.519.993,14.007,14.007,0,0,0,2.815.273c5.972,0,10.722-2.052,14.116-6.1,3.416-4.073,5.148-9.865,5.148-17.215a26.134,26.134,0,0,0-4.686-15.545c-3.072-4.3-7.132-6.473-12.067-6.473A15.321,15.321,0,0,0,21.391-42.9a13.825,13.825,0,0,0-5.008,4.445l-.926,1.511v-7.1H5.684Zm309.163-6.29a12.885,12.885,0,0,1-6.948-1.98c-2.171-1.361-3.272-3.016-3.272-4.919A11.184,11.184,0,0,1,305.879.057a11.819,11.819,0,0,1,3.76-3.558l.123-.078h.145c.224,0,.72.013,1.516.041.774.027,1.762.04,2.939.04h.028a33.3,33.3,0,0,1,10.062,1.737c2.4.971,3.613,2.353,3.613,4.108a9.712,9.712,0,0,1-3.408,7.542C322.412,11.883,319.112,12.893,314.847,12.893Zm-4.8-15.47A10.715,10.715,0,0,0,306.724.591a10.427,10.427,0,0,0-1.1,5.4c0,1.558.917,2.89,2.8,4.072a11.9,11.9,0,0,0,6.417,1.827c4.013,0,7.089-.925,9.145-2.749a8.64,8.64,0,0,0,3.072-6.795c0-1.327-.978-2.367-2.988-3.182A32.365,32.365,0,0,0,314.347-2.5c-1.182,0-2.178-.014-2.96-.041C310.755-2.56,310.307-2.573,310.05-2.577ZM89.586,1.391c-4.106,0-7.24-1.267-9.315-3.765a12.413,12.413,0,0,1-2.33-4.666,24.236,24.236,0,0,1-.762-6.406v-31.6H89.114v31.632c-.112,2.009.176,3.392.856,4.111a2.08,2.08,0,0,0,1.605.61,4.379,4.379,0,0,0,.687-.059c2.909-.467,6.851-3.011,11.72-7.561l.981-.981V-45.05H116.9V.5H104.962V-4.9a20.424,20.424,0,0,1-5.174,3.674A21.158,21.158,0,0,1,89.586,1.391ZM78.179-44.05v30.6c0,4.637.963,8.147,2.861,10.433,1.876,2.259,4.751,3.4,8.546,3.4A20.169,20.169,0,0,0,99.31-2.1c3.033-1.647,4.955-3.175,5.715-4.542l.937-1.687V-.5H115.9V-44.05h-9.935v27.166l-1.293,1.292a49.512,49.512,0,0,1-6.794,5.462,14.97,14.97,0,0,1-5.456,2.361,5.331,5.331,0,0,1-.846.071,3.07,3.07,0,0,1-2.331-.923c-.887-.937-1.256-2.521-1.129-4.84V-44.05ZM72.4,1.391h-.476A38.368,38.368,0,0,1,63.574.629a10.533,10.533,0,0,1-5.036-2.377l0,0A10.9,10.9,0,0,1,55.92-6.206a20.709,20.709,0,0,1-.854-6.268V-66.92H66.92v53.474c0,2.989.46,4.134.846,4.568s1.478.944,4.577,1.007l.514.01ZM59.238-2.463C61.136-.616,65.244.343,71.452.389l.357-7.276c-2.516-.1-4.085-.534-4.79-1.327-.739-.831-1.1-2.543-1.1-5.233V-65.92H56.066v53.446C56.066-7.938,57.133-4.569,59.238-2.463ZM285.539.5H273.685V-45.05h11.854Zm-10.854-1h9.854V-44.05h-9.854ZM190.769.5H178.834V-31.1c0-4.508-1.811-4.508-2.406-4.508a6.773,6.773,0,0,0-3.013.979,25.852,25.852,0,0,0-7.467,6.359l-.005.006a7.9,7.9,0,0,0-.609.79V.5H153.481V-31.1c0-4.5-1.8-4.5-2.4-4.5a7.362,7.362,0,0,0-3.411,1.209,29.272,29.272,0,0,0-7.394,6.521c-.113.151-.213.289-.3.411V.5H128.047V-45.05h11.935v5.218c1.434-1.131,2.541-1.98,3.3-2.53a24.956,24.956,0,0,1,4.22-2.279,13.515,13.515,0,0,1,5.51-1.3c5.109,0,8.768,2.474,10.888,7.357,1.589-1.394,2.875-2.482,3.827-3.239a23.793,23.793,0,0,1,4.636-2.694,14.213,14.213,0,0,1,6-1.424c4.106,0,7.24,1.267,9.315,3.765a12.413,12.413,0,0,1,2.33,4.666,24.235,24.235,0,0,1,.762,6.406Zm-10.935-1h9.935V-31.1c0-4.637-.963-8.147-2.861-10.433-1.876-2.259-4.751-3.4-8.546-3.4a13.224,13.224,0,0,0-5.58,1.33,22.841,22.841,0,0,0-4.436,2.571c-1.041.828-2.493,2.062-4.314,3.669l-.537.474-.26-.667c-1.933-4.964-5.278-7.376-10.226-7.376a12.529,12.529,0,0,0-5.1,1.212,24.045,24.045,0,0,0-4.042,2.176c-.881.641-2.252,1.7-4.074,3.146l-.811.644V-44.05h-9.935V-.5h9.935V-27.772l.084-.126c.113-.169.254-.367.421-.59l.015-.019a30.271,30.271,0,0,1,7.661-6.752l.006,0a8.167,8.167,0,0,1,3.917-1.346,2.868,2.868,0,0,1,2.6,1.5,8.058,8.058,0,0,1,.791,4V-.5h9.854V-27.76l.071-.119a7.894,7.894,0,0,1,.775-1.036,26.839,26.839,0,0,1,7.759-6.6,7.6,7.6,0,0,1,3.488-1.1,2.878,2.878,0,0,1,2.612,1.5,8.047,8.047,0,0,1,.794,4.007ZM244.62-7.681a12.036,12.036,0,0,1-5.367-1.389,24.9,24.9,0,0,1-5.665-4.091l-.16-.148V-27.937l.087-.127a23.75,23.75,0,0,1,6.335-6.576,12.834,12.834,0,0,1,7.287-2.228h.009c2.091.06,3.78,1.523,5.02,4.349a23.853,23.853,0,0,1,1.784,9.6c0,4.662-.828,8.387-2.462,11.073A7.761,7.761,0,0,1,244.62-7.681Zm-10.192-6.065c3.661,3.361,7.089,5.065,10.192,5.065,2.536,0,4.5-1.206,6.012-3.688,1.537-2.527,2.317-6.078,2.317-10.554a22.869,22.869,0,0,0-1.7-9.2c-1.085-2.474-2.436-3.7-4.129-3.751H247c-4.574,0-8.8,2.773-12.568,8.242ZM26.649-7.681A12.036,12.036,0,0,1,21.282-9.07a24.9,24.9,0,0,1-5.665-4.091l-.16-.148V-27.937l.087-.127a23.75,23.75,0,0,1,6.335-6.576,12.836,12.836,0,0,1,7.287-2.228h.009c2.091.06,3.78,1.523,5.02,4.349a23.854,23.854,0,0,1,1.784,9.6c0,4.662-.828,8.387-2.462,11.073A7.761,7.761,0,0,1,26.649-7.681ZM16.457-13.746c3.661,3.361,7.089,5.065,10.192,5.065,2.536,0,4.5-1.206,6.012-3.688,1.537-2.527,2.317-6.078,2.317-10.554a22.87,22.87,0,0,0-1.7-9.2c-1.085-2.474-2.436-3.7-4.129-3.751h-.124c-4.574,0-8.8,2.773-12.568,8.242ZM314.523-22.18c-2.748,0-4.852-.74-6.253-2.2s-2.1-3.634-2.1-6.482a6.506,6.506,0,0,1,2.765-5.675,9.671,9.671,0,0,1,5.592-1.872,9.671,9.671,0,0,1,5.592,1.872,6.506,6.506,0,0,1,2.765,5.675c0,3.176-.885,5.45-2.63,6.758A9.355,9.355,0,0,1,314.523-22.18Zm0-15.228a8.692,8.692,0,0,0-5.019,1.692,5.491,5.491,0,0,0-2.338,4.855c0,2.581.614,4.529,1.825,5.789s3.067,1.892,5.532,1.892A8.376,8.376,0,0,0,319.65-24.9c1.48-1.11,2.23-3.115,2.23-5.958a5.491,5.491,0,0,0-2.338-4.855A8.692,8.692,0,0,0,314.523-37.408Zm-34.83-13.77a7.088,7.088,0,0,1-4.782-1.661,5.335,5.335,0,0,1-1.955-4.185,5.335,5.335,0,0,1,1.955-4.185,7.088,7.088,0,0,1,4.782-1.661,6.819,6.819,0,0,1,4.665,1.664,5.381,5.381,0,0,1,1.91,4.182,5.381,5.381,0,0,1-1.91,4.182A6.819,6.819,0,0,1,279.693-51.178Zm0-10.692a6.118,6.118,0,0,0-4.128,1.417,4.319,4.319,0,0,0-1.609,3.429,4.319,4.319,0,0,0,1.609,3.429,6.118,6.118,0,0,0,4.128,1.417,5.773,5.773,0,0,0,4-1.414,4.364,4.364,0,0,0,1.573-3.432,4.364,4.364,0,0,0-1.573-3.432A5.773,5.773,0,0,0,279.693-61.87Z" transform="translate(4.5 72.5)" fill="#f7cf96"/></g></svg>