<?xml version="1.0" encoding="iso-8859-1"?>
<!-- Generator: Adobe Illustrator 19.0.0, SVG Export Plug-In . SVG Version: 6.00 Build 0)  -->
<svg version="1.1" id="Capa_1" xmlns="http://www.w3.org/2000/svg" xmlns:xlink="http://www.w3.org/1999/xlink" x="0px" y="0px"
	 viewBox="0 0 512 512" style="enable-background:new 0 0 512 512;" xml:space="preserve">
<path style="fill:#FFF9EB;" d="M481.999,429.5H30c-12.426,0-22.5-10.073-22.5-22.5V117.5h496.998V407
	C504.498,419.426,494.425,429.5,481.999,429.5z"/>
<path style="fill:#D3CDBF;" d="M504.498,117.5h-30v282H7.5v7.5c0,12.426,10.073,22.5,22.5,22.5h451.999
	c12.426,0,22.5-10.074,22.5-22.5V117.5H504.498z"/>
<path style="fill:#6C7A88;" d="M482,82.5H30.001c-12.426,0-22.5,10.073-22.5,22.5v24.5H504.5V105
	C504.5,92.574,494.427,82.5,482,82.5z"/>
<path style="fill:#4D5967;" d="M504.498,104.913C504.452,93.121,494.967,82.5,482,82.5l0,0l0,0h-7.502V107H7.502v22.5h466.996l0,0
	h30l0,0h0.002C504.5,127.757,504.501,105.664,504.498,104.913z"/>
<g>
	<path style="fill:#6C7A88;" d="M256.213,210.204c-81.331,0-80.917,138.594,0,138.594
		C337.544,348.798,336.98,210.204,256.213,210.204z M278.189,308.741c-5.361,6.861-12.345,10.058-21.977,10.058
		c-29.978,0-30.843-35.395-30.843-39.43c0-11.306,3.218-21.907,8.828-29.085c5.375-6.877,12.37-10.08,22.015-10.08
		c29.923,0,30.787,35.438,30.787,39.478C287,290.983,283.789,301.574,278.189,308.741z"/>
	<path style="fill:#6C7A88;" d="M165.791,304.425h-16.397c0-19.371,0.012-1.329-0.077-104.944c-0.007-8.28-6.721-14.987-15-14.987
		c-8.284,0-15,6.715-15,15c0,15.143,0,89.832,0,104.932c-9.99,0-41.422,0-52.48,0l24.69-72.11
		c2.625-7.662-1.366-16.323-9.332-19.051c-7.79-2.663-16.441,1.452-19.143,9.359l-31.454,92.028
		c-3.324,9.724,3.915,19.852,14.193,19.852h73.524l-0.003,24.989c0,3.979,1.602,7.794,4.414,10.607
		c9.502,9.501,25.667,2.582,25.667-10.646v-25.029h16.397c8.284,0,15-6.716,15-15S174.075,304.425,165.791,304.425z"/>
	<path style="fill:#6C7A88;" d="M466.81,304.425h-16.397c0-19.371,0.012-1.329-0.077-104.944c-0.007-8.28-6.721-14.987-15-14.987
		c-8.284,0-15,6.715-15,15c0,15.143,0,89.832,0,104.932c-9.99,0-41.422,0-52.48,0l24.69-72.11
		c2.625-7.662-1.366-16.323-9.332-19.051c-7.79-2.663-16.441,1.452-19.143,9.359l-31.454,92.028
		c-3.324,9.724,3.915,19.852,14.193,19.852h73.524l-0.003,24.989c0,3.979,1.602,7.794,4.414,10.607
		c9.502,9.501,25.667,2.582,25.667-10.646v-25.029h16.397c8.284,0,15-6.716,15-15S475.094,304.425,466.81,304.425z"/>
</g>
<path d="M511.962,128.758c-0.349-3.549-3.175-6.374-6.725-6.721c-0.245-0.024-0.491-0.037-0.738-0.037H15l0,0v-17
	c0.02-8.26,6.75-14.99,15-15h452.029c6.891,0,12.86,4.67,14.53,11.37c0.83,3.35,3.82,5.689,7.271,5.689
	c0.609,0,1.22-0.08,1.81-0.229c4.021-0.99,6.47-5.07,5.47-9.08c-1.58-6.391-5.31-12.17-10.489-16.28
	C495.279,77.24,488.84,75.01,482,75H30c-8.01,0-15.55,3.12-21.21,8.79C3.13,89.45,0,96.99,0,105v24.5c0,4.14,3.37,7.5,7.5,7.5l0,0
	H497v270c-0.021,8.26-6.75,14.979-15,15H30c-8.26-0.021-14.99-6.74-15-15V159.5c0-4.141-3.36-7.5-7.5-7.5c-4.13,0-7.5,3.359-7.5,7.5
	V407c0,8.01,3.12,15.55,8.79,21.21C14.45,433.88,21.979,437,30,437h452c8.01,0,15.55-3.12,21.21-8.79
	c5.66-5.66,8.78-13.2,8.79-21.21L511.962,128.758c0-0.061,0.038,0.812,0.038,0.742l0,0l0,0
	C512,129.251,511.987,129.004,511.962,128.758z"/>
<path d="M34.982,98.661c-4.31,0.923-6.665,4.978-5.88,8.82c1.208,6.457,9.79,8.271,13.59,2.7
	C46.416,104.525,41.418,97.34,34.982,98.661z"/>
<path d="M65.01,98.661c-4.31,0.923-6.664,4.978-5.88,8.82c1.208,6.457,9.79,8.271,13.59,2.7
	C76.444,104.525,71.446,97.34,65.01,98.661z"/>
<path d="M95.039,98.661c-4.31,0.923-6.664,4.978-5.88,8.82c1.208,6.457,9.79,8.271,13.59,2.7
	C106.472,104.525,101.474,97.34,95.039,98.661z"/>
<path d="M255.93,356.3c-10.729,0-20.75-2.3-29.77-6.83c-8.41-4.22-15.641-10.2-21.48-17.77c-10.82-13.931-16.79-32.521-16.81-52.33
	c0-14.011,3.04-27.601,8.77-39.32c6.271-12.82,15.66-22.96,27.14-29.33c1.12-0.62,2.37-0.95,3.631-0.95
	c2.729,0,5.25,1.48,6.569,3.86c0.971,1.76,1.2,3.78,0.65,5.71s-1.82,3.52-3.57,4.49c-8.899,4.939-15.939,12.62-20.95,22.819
	c-4.75,9.66-7.25,20.98-7.239,32.721c-0.021,16.29,4.949,32.01,13.64,43.109c9.8,12.41,23.16,18.74,39.7,18.82
	c16.819-0.08,29.81-6.2,39.71-18.71c8.649-11.021,13.6-26.66,13.58-42.91c0.02-16.3-4.96-32.03-13.65-43.15
	c-9.79-12.409-23.12-18.75-39.64-18.829c-4.13,0-7.5-3.36-7.5-7.49c0-4.141,3.37-7.51,7.5-7.51h0.29c10.71,0,20.72,2.3,29.729,6.829
	c8.41,4.23,15.63,10.221,21.46,17.79c10.82,13.94,16.79,32.54,16.811,52.36c-0.021,19.771-5.971,38.29-16.76,52.15
	c-5.83,7.529-13.051,13.479-21.461,17.68c-9.02,4.5-19.029,6.79-29.779,6.79L255.93,356.3L255.93,356.3z"/>
<path d="M134.18,382.01L134.18,382.01h-0.12c-5.77,0-11.479-2.41-15.64-6.61c-4.26-4.26-6.61-9.909-6.61-15.909V342H45.74
	c-6.021,0-11.87-2.471-16.03-6.771c-4.141-4.239-6.431-9.819-6.431-15.71c0-2.47,0.41-4.93,1.221-7.29L55.95,220.2
	c3.13-9.12,11.71-15.25,21.359-15.25h0.04c2.48,0,4.92,0.409,7.271,1.22c9.109,3.13,15.229,11.7,15.21,21.32
	c0,2.47-0.41,4.909-1.21,7.26l-21.29,62.17h34.479v-97.43c0.01-6.011,2.351-11.66,6.601-15.91c4.239-4.24,9.899-6.58,15.909-6.59
	c6,0.01,11.65,2.34,15.9,6.59c4.25,4.239,6.59,9.89,6.59,15.89l0.05,47.39c0.021,28.551,0.03,38.17,0.03,43.99
	c0,4.141-3.36,7.5-7.49,7.51c-2.01,0-3.899-0.779-5.31-2.199c-1.42-1.42-2.2-3.301-2.2-5.301c0-4.3-0.01-10.71-0.02-25.239
	c-0.011-13.48-0.03-33.931-0.051-66.13c-0.01-4.131-3.38-7.49-7.5-7.5c-4.13,0.01-7.5,3.38-7.5,7.5V304.43c0,1.97-0.8,3.9-2.199,5.3
	c-1.4,1.391-3.33,2.2-5.301,2.2H66.84c-2.42,0-4.7-1.18-6.11-3.14c-1.399-1.971-1.77-4.511-0.989-6.8l24.689-72.1
	c0.26-0.78,0.4-1.58,0.4-2.399c-0.021-3.25-2.051-6.12-5.061-7.131c-0.8-0.27-1.609-0.409-2.439-0.409
	c-3.28,0.01-6.16,2.06-7.181,5.1l-31.46,92.03c-0.27,0.81-0.41,1.609-0.41,2.439c-0.01,1.91,0.78,3.82,2.16,5.24
	c1.471,1.48,3.271,2.23,5.351,2.24h73.52c1.98,0,3.91,0.8,5.311,2.2c1.39,1.39,2.189,3.329,2.189,5.31v24.98
	c0,1.96,0.811,3.899,2.22,5.31c1.53,1.49,3.12,2.17,5.15,2.21h0.05c1.9,0,3.95-0.83,5.351-2.15c1.56-1.489,2.29-3.21,2.31-5.409
	v-25.03c0-1.97,0.8-3.9,2.2-5.3c1.39-1.391,3.33-2.19,5.3-2.19h16.4c4.13-0.01,7.489-3.38,7.5-7.5c-0.011-4.13-3.37-7.5-7.5-7.5
	c-4.141,0-7.5-3.37-7.5-7.5c0-4.14,3.359-7.51,7.5-7.51c6.01,0.01,11.66,2.35,15.91,6.6c4.25,4.24,6.59,9.891,6.59,15.91
	c0,6.01-2.34,11.66-6.59,15.91c-4.25,4.24-9.9,6.58-15.91,6.58h-8.9v17.54c0.03,6.229-2.55,12.2-7.08,16.37
	C145.529,379.8,139.979,381.99,134.18,382.01z"/>
<path d="M435.2,382.01L435.2,382.01h-0.12c-5.78,0-11.48-2.41-15.641-6.61c-4.26-4.26-6.609-9.909-6.609-15.909V342h-66.07
	c-6.02,0-11.87-2.471-16.04-6.771c-4.14-4.25-6.42-9.83-6.42-15.71c0-2.479,0.41-4.93,1.22-7.29l31.45-92.029
	c3.13-9.12,11.71-15.25,21.36-15.25h0.04c2.479,0,4.92,0.409,7.27,1.22c9.11,3.13,15.22,11.7,15.2,21.32
	c0.01,2.47-0.4,4.909-1.2,7.26l-21.29,62.17h34.49v-97.43c0-6.011,2.34-11.66,6.59-15.91c4.24-4.24,9.89-6.58,15.91-6.59
	c6,0.01,11.65,2.34,15.9,6.59c4.239,4.239,6.59,9.89,6.6,15.89c0.03,41.54,0.05,63.53,0.06,76.21c0,7.75,0.011,12.03,0.011,15.17
	c0,4.141-3.36,7.5-7.5,7.51c-4.141,0-7.5-3.369-7.5-7.5c0-3.39-0.011-8.1-0.011-17.06c-0.02-12.95-0.029-34.771-0.069-74.31
	c0-4.131-3.37-7.49-7.49-7.5c-4.13,0.01-7.5,3.38-7.51,7.5v104.94c0,1.97-0.801,3.9-2.19,5.3c-1.399,1.391-3.33,2.2-5.3,2.2h-52.49
	c-2.41,0-4.689-1.18-6.1-3.14c-1.4-1.971-1.771-4.511-0.99-6.8l24.69-72.11c0.26-0.76,0.399-1.57,0.399-2.39
	c-0.02-3.25-2.05-6.12-5.07-7.131c-0.789-0.27-1.609-0.409-2.43-0.409c-3.28,0.01-6.17,2.06-7.18,5.1l-31.46,92.03
	c-0.271,0.81-0.41,1.609-0.41,2.439c-0.01,1.92,0.78,3.83,2.16,5.24c1.47,1.48,3.27,2.23,5.35,2.24h73.53c1.97,0,3.9,0.8,5.3,2.2
	c1.39,1.39,2.19,3.329,2.19,5.31v24.98c0,1.97,0.81,3.899,2.22,5.31c1.53,1.49,3.12,2.17,5.15,2.21h0.05
	c1.899,0,3.95-0.83,5.35-2.15c1.55-1.5,2.29-3.21,2.311-5.409v-25.03c0-1.97,0.8-3.9,2.199-5.3c1.391-1.391,3.33-2.19,5.301-2.19
	h16.399c4.13-0.01,7.49-3.38,7.5-7.5c-0.01-4.13-3.37-7.5-7.5-7.5s-7.5-3.37-7.5-7.5c0-4.14,3.37-7.51,7.5-7.51
	c6.01,0.01,11.66,2.35,15.91,6.6c4.25,4.24,6.59,9.891,6.59,15.91c0,6.01-2.34,11.66-6.59,15.91c-4.25,4.24-9.9,6.58-15.91,6.58
	h-8.899v17.54c0.029,6.229-2.561,12.2-7.08,16.37C446.55,379.8,441,381.99,435.2,382.01z"/>
<path d="M256.213,326.299c-30.268,0-38.343-29.499-38.343-46.93c0-12.948,3.798-25.232,10.419-33.704
	c6.816-8.722,15.951-12.961,27.924-12.961c30.224,0,38.287,29.529,38.287,46.978c0,12.942-3.791,25.218-10.4,33.677v0.001
	C277.296,322.066,268.174,326.299,256.213,326.299z M256.213,247.704c-7.345,0-12.162,2.153-16.105,7.198
	c-4.6,5.885-7.237,14.803-7.237,24.467c0,5.332,1.125,31.93,23.343,31.93c7.332,0,12.137-2.146,16.066-7.176v0.001
	c4.589-5.874,7.221-14.782,7.221-24.442C279.5,274.342,278.377,247.704,256.213,247.704z M278.189,308.741h0.01H278.189z"/>
<g>
</g>
<g>
</g>
<g>
</g>
<g>
</g>
<g>
</g>
<g>
</g>
<g>
</g>
<g>
</g>
<g>
</g>
<g>
</g>
<g>
</g>
<g>
</g>
<g>
</g>
<g>
</g>
<g>
</g>
</svg>
