<svg xmlns="http://www.w3.org/2000/svg" xmlns:xlink="http://www.w3.org/1999/xlink" width="250" height="172" viewBox="0 0 250 172"><defs><clipPath id="b"><rect width="250" height="172"/></clipPath></defs><g id="a" clip-path="url(#b)"><path d="M23.616-31.62q-.109.608-.347,1.867T22.9-27.886a37.647,37.647,0,0,1-1.292,4.918A18.865,18.865,0,0,1,20.1-19.56a8.811,8.811,0,0,1-1.835,2.215,8.484,8.484,0,0,1-2.03,1.335,14.979,14.979,0,0,1-2.323.782,17.4,17.4,0,0,1-3.344.239,10.619,10.619,0,0,1-4.082-.727,6.807,6.807,0,0,1-2.812-2.063A9.139,9.139,0,0,1,2.1-20.862a13.616,13.616,0,0,1-.521-3.9,23.492,23.492,0,0,1,.456-4.321Q3.62-37.439,8.418-41.434A12.17,12.17,0,0,1,16.061-44h.434q6.991.174,8.4,5.58-.912.434-2.779,1.27T19.339-35.9a4.486,4.486,0,0,0-1.064-2.79,4.187,4.187,0,0,0-2.931-.814q-2.67,0-4.722,2.92a20.01,20.01,0,0,0-2.985,7.74A21.618,21.618,0,0,0,7.2-24.868q0,5.406,4.017,5.406a4.288,4.288,0,0,0,1.965-.445,4.668,4.668,0,0,0,1.476-1.151,7.278,7.278,0,0,0,1.075-1.8,16.164,16.164,0,0,0,.771-2.16q.293-1.064.575-2.475-.239,0-.695.011t-.695.011a11.4,11.4,0,0,0-1.987.141,17.587,17.587,0,0,0-2.291.662q-.152-.738-.445-2.193t-.445-2.171a20.221,20.221,0,0,1,6.709-.934Q19.274-31.968,23.616-31.62ZM34.971-45.689h6.318L40.355-40.8H34.037Zm-1,7.968q.912.109,2.725.282t2.7.282L36.513-22.241a6.345,6.345,0,0,0-.109,1.107q0,2.019,1.867,2.019a7.828,7.828,0,0,0,5.015-1.976q.217.695.651,2.063t.651,2.063a11.152,11.152,0,0,1-3.8,1.639,18.643,18.643,0,0,1-4.451.554q-5.84,0-5.84-4.407a8.63,8.63,0,0,1,.174-1.585q.326-1.737,1-5.2t1.02-5.2a11.482,11.482,0,0,1-2.909,1.78q-.413-.651-1.216-2t-1.194-2Q32.518-35.051,33.972-37.721ZM52.6-22.675a4.149,4.149,0,0,0,.456,2.312,1.5,1.5,0,0,0,1.281.619q1,0,2.931-1.683a29.216,29.216,0,0,0,3.561-3.7,10.912,10.912,0,0,0,1.954-3.083q.065-.413.206-1.227t.206-1.227a5.578,5.578,0,0,0-4.429-2.453q-2.562,0-4.364,2.822A14.037,14.037,0,0,0,52.6-22.675ZM69.883-37.157l-2.8,14.264q-.391,1.932-.8,3.55t-1.042,3.354a22.608,22.608,0,0,1-1.368,3.094,16.8,16.8,0,0,1-1.759,2.605A10.546,10.546,0,0,1,59.9-8.226a10.365,10.365,0,0,1-2.746,1.3,11.119,11.119,0,0,1-3.354.489q-4.017,0-9.314-3.148.369-.738,1.086-2.2t1.064-2.182a13.466,13.466,0,0,0,7.534,2.822,4.206,4.206,0,0,0,1.379-.228,6.624,6.624,0,0,0,1.183-.532,4.384,4.384,0,0,0,1.042-.89q.521-.586.868-1.031a7.471,7.471,0,0,0,.749-1.259q.4-.814.608-1.238a13.634,13.634,0,0,0,.521-1.314q.315-.89.4-1.162t.326-1.075a.167.167,0,0,0,.022-.065A.167.167,0,0,1,61.285-20a.6.6,0,0,0,.033-.076q.011-.033.022-.076a.3.3,0,0,0,.011-.065q-.521.76-.912,1.27a14.643,14.643,0,0,1-1.216,1.335,9.9,9.9,0,0,1-1.617,1.335,8.568,8.568,0,0,1-2.008.9,8.179,8.179,0,0,1-2.519.391,4.7,4.7,0,0,1-4.017-2.139,9.243,9.243,0,0,1-1.52-5.482,18.885,18.885,0,0,1,1.487-7.61A13.015,13.015,0,0,1,53.2-35.626a9.871,9.871,0,0,1,6.025-1.987,7.737,7.737,0,0,1,2.421.38,7.759,7.759,0,0,1,1.531.619q.369.239,1.281.868.065-.347.434-1.672l2.5.13Zm5.732,14.481a4.149,4.149,0,0,0,.456,2.312,1.5,1.5,0,0,0,1.281.619q1,0,2.931-1.683a29.216,29.216,0,0,0,3.561-3.7A10.912,10.912,0,0,0,85.8-28.212q.065-.413.206-1.227t.206-1.227a5.578,5.578,0,0,0-4.429-2.453q-2.562,0-4.364,2.822A14.037,14.037,0,0,0,75.615-22.675ZM92.9-37.157,90.1-22.892q-.391,1.932-.8,3.55t-1.042,3.354a22.608,22.608,0,0,1-1.368,3.094,16.8,16.8,0,0,1-1.759,2.605A10.546,10.546,0,0,1,82.91-8.226a10.364,10.364,0,0,1-2.746,1.3,11.119,11.119,0,0,1-3.354.489q-4.017,0-9.314-3.148.369-.738,1.086-2.2t1.064-2.182a13.466,13.466,0,0,0,7.534,2.822,4.206,4.206,0,0,0,1.379-.228,6.624,6.624,0,0,0,1.183-.532,4.384,4.384,0,0,0,1.042-.89q.521-.586.868-1.031a7.471,7.471,0,0,0,.749-1.259q.4-.814.608-1.238a13.637,13.637,0,0,0,.521-1.314q.315-.89.4-1.162t.326-1.075a.167.167,0,0,0,.022-.065A.167.167,0,0,1,84.3-20a.6.6,0,0,0,.033-.076q.011-.033.022-.076a.3.3,0,0,0,.011-.065q-.521.76-.912,1.27a14.643,14.643,0,0,1-1.216,1.335,9.9,9.9,0,0,1-1.617,1.335,8.568,8.568,0,0,1-2.008.9,8.18,8.18,0,0,1-2.519.391,4.7,4.7,0,0,1-4.017-2.139,9.243,9.243,0,0,1-1.52-5.482,18.885,18.885,0,0,1,1.487-7.61,13.015,13.015,0,0,1,4.169-5.406,9.871,9.871,0,0,1,6.025-1.987,7.737,7.737,0,0,1,2.421.38,7.759,7.759,0,0,1,1.531.619q.369.239,1.281.868.065-.347.434-1.672l2.5.13Zm13.743-8.88-4.1,21.429a11,11,0,0,0-.174,1.759,3.326,3.326,0,0,0,.912,2.573,4.109,4.109,0,0,0,2.844.836,10.7,10.7,0,0,0,5.971-1.889q.261.738.771,2.193t.771,2.171a11.18,11.18,0,0,1-3.723,1.639,17.641,17.641,0,0,1-4.353.554,10.441,10.441,0,0,1-6.546-1.856,5.787,5.787,0,0,1-2.4-4.787,10.737,10.737,0,0,1,.2-1.976q.716-3.843,2.139-11.54t2.139-11.54q.912.087,2.768.217T106.64-46.036Zm16.826,19.106a34.049,34.049,0,0,0,4.353-.825,8.955,8.955,0,0,0,2.681-.955,2.52,2.52,0,0,0,1.107-1.889,2.144,2.144,0,0,0-.749-1.639,3.418,3.418,0,0,0-2.356-.684,4.1,4.1,0,0,0-3.083,1.639A9.074,9.074,0,0,0,123.466-26.931Zm5.84-10.4a11.061,11.061,0,0,1,3.148.413,6.847,6.847,0,0,1,2.236,1.064,5.957,5.957,0,0,1,1.411,1.542,6,6,0,0,1,.782,1.769,7.535,7.535,0,0,1,.217,1.813,6.352,6.352,0,0,1-.347,2.215,7.147,7.147,0,0,1-4.082,4.006,36.257,36.257,0,0,1-9.64,2.139,2.809,2.809,0,0,0,.923,2.041,3.238,3.238,0,0,0,2.377.912,11.357,11.357,0,0,0,6.9-2.149l2.215,3.908q-1.346.716-1.715.9t-1.357.651a7.392,7.392,0,0,1-1.465.564q-.478.1-1.422.3a11.291,11.291,0,0,1-1.9.25q-.955.043-2.258.043a7.536,7.536,0,0,1-5.819-2.182,8.465,8.465,0,0,1-2.019-5.981,17.722,17.722,0,0,1,.326-3.257,16.939,16.939,0,0,1,1.444-4.331,13.7,13.7,0,0,1,2.432-3.474,10.363,10.363,0,0,1,3.4-2.323A10.6,10.6,0,0,1,129.307-37.33ZM172.592-34.9a7.582,7.582,0,0,0,.174-1.607,3.512,3.512,0,0,0-.25-1.4,2.448,2.448,0,0,0-.564-.858,2.226,2.226,0,0,0-.879-.445,4.451,4.451,0,0,0-.944-.185q-.38-.022-.988-.022h-.2q-.76,0-1.878.054t-1.4.054q-.043.261-.141.771t-.163.771l-1.693,8.511q1.563.043,2.258.043a11.543,11.543,0,0,0,1.574-.1,6.227,6.227,0,0,0,1.552-.456,5.039,5.039,0,0,0,1.487-.955,6.1,6.1,0,0,0,1.194-1.661A9.784,9.784,0,0,0,172.592-34.9ZM160.933-15.163h-5.428q.934-4.776,2.79-14.329t2.79-14.329q1.238,0,3.029-.087T167.382-44q2.106,0,3.474.1a18.9,18.9,0,0,1,2.812.423,7,7,0,0,1,2.453,1.02,6.068,6.068,0,0,1,1.7,1.8,5.816,5.816,0,0,1,.76,3.126,12.193,12.193,0,0,1-.239,2.3q-1.042,5.406-3.9,7.968t-8.326,2.562q-1.563,0-3.322-.065Q162.019-20.678,160.933-15.163Zm28.4-30.526h6.318l-.934,4.885H188.4Zm-1,7.968q.912.109,2.725.282t2.7.282l-2.888,14.916a6.347,6.347,0,0,0-.109,1.107q0,2.019,1.867,2.019a7.828,7.828,0,0,0,5.015-1.976q.217.695.651,2.063t.651,2.063a11.151,11.151,0,0,1-3.8,1.639,18.643,18.643,0,0,1-4.451.554q-5.84,0-5.84-4.407a8.63,8.63,0,0,1,.174-1.585q.326-1.737,1-5.2t1.02-5.2a11.482,11.482,0,0,1-2.909,1.78q-.412-.651-1.216-2t-1.194-2Q186.878-35.051,188.333-37.721Zm18.628,15.046a4.149,4.149,0,0,0,.456,2.312,1.5,1.5,0,0,0,1.281.619q1,0,2.931-1.683a29.216,29.216,0,0,0,3.561-3.7,10.912,10.912,0,0,0,1.954-3.083q.065-.413.206-1.227t.206-1.227a5.578,5.578,0,0,0-4.429-2.453q-2.562,0-4.364,2.822A14.037,14.037,0,0,0,206.961-22.675Zm17.282-14.481-2.8,14.264q-.391,1.932-.8,3.55T219.6-15.988a22.606,22.606,0,0,1-1.368,3.094,16.8,16.8,0,0,1-1.759,2.605,10.546,10.546,0,0,1-2.215,2.063,10.365,10.365,0,0,1-2.746,1.3,11.119,11.119,0,0,1-3.354.489q-4.017,0-9.314-3.148.369-.738,1.086-2.2t1.064-2.182a13.466,13.466,0,0,0,7.534,2.822,4.206,4.206,0,0,0,1.379-.228,6.624,6.624,0,0,0,1.183-.532,4.384,4.384,0,0,0,1.042-.89q.521-.586.868-1.031a7.47,7.47,0,0,0,.749-1.259q.4-.814.608-1.238a13.634,13.634,0,0,0,.521-1.314q.315-.89.4-1.162t.326-1.075a.167.167,0,0,0,.022-.065.167.167,0,0,1,.022-.065.6.6,0,0,0,.033-.076q.011-.033.022-.076a.3.3,0,0,0,.011-.065q-.521.76-.912,1.27a14.647,14.647,0,0,1-1.216,1.335,9.9,9.9,0,0,1-1.617,1.335,8.569,8.569,0,0,1-2.008.9,8.179,8.179,0,0,1-2.519.391,4.7,4.7,0,0,1-4.017-2.139,9.243,9.243,0,0,1-1.52-5.482,18.885,18.885,0,0,1,1.487-7.61,13.015,13.015,0,0,1,4.169-5.406,9.871,9.871,0,0,1,6.025-1.987,7.737,7.737,0,0,1,2.421.38,7.759,7.759,0,0,1,1.531.619q.369.239,1.281.868.065-.347.434-1.672l2.5.13Z" transform="translate(11.921 160.471)" fill="#f7cf96"/><path d="M100.266-47.553l.91.087c.6.057,1.519.129,2.743.215,1.24.087,2.186.161,2.813.219l1.1.1-4.308,22.5a10.045,10.045,0,0,0-.158,1.582,2.415,2.415,0,0,0,.588,1.836,3.267,3.267,0,0,0,2.168.573,9.762,9.762,0,0,0,5.42-1.724l1.068-.7.426,1.206q.261.739.771,2.195c.338.963.6,1.69.767,2.16l.261.719-.625.44a12.222,12.222,0,0,1-4.053,1.791,18.725,18.725,0,0,1-4.6.584A11.447,11.447,0,0,1,98.4-15.838a6.766,6.766,0,0,1-2.787-5.578,11.79,11.79,0,0,1,.212-2.16C96.3-26.122,97.016-30,97.96-35.113S99.622-44.1,100.1-46.654Zm5.182,2.42c-.474-.037-1.032-.078-1.669-.123-.734-.052-1.363-.1-1.881-.14-.472,2.534-1.134,6.108-1.972,10.647-.944,5.11-1.664,8.993-2.139,11.541a9.794,9.794,0,0,0-.178,1.792,4.8,4.8,0,0,0,2.011,4,9.533,9.533,0,0,0,5.934,1.647,16.724,16.724,0,0,0,4.107-.523,10.926,10.926,0,0,0,2.758-1.084c-.141-.4-.309-.873-.5-1.427l-.365-1.04a11.409,11.409,0,0,1-5.433,1.4,5.063,5.063,0,0,1-3.52-1.1,4.284,4.284,0,0,1-1.236-3.31,11.859,11.859,0,0,1,.187-1.923l0-.024Zm-71.3-1.556H42.5L41.182-39.8H32.828Zm5.936,2H35.8L35.247-41.8h4.282Zm148.425-2h8.354L195.543-39.8h-8.354Zm5.936,2h-4.282l-.551,2.885h4.282ZM16.061-45h.459a11.472,11.472,0,0,1,6.124,1.648,7.757,7.757,0,0,1,3.221,4.678l.209.8-.746.355c-.611.291-1.554.722-2.8,1.28s-2.171.974-2.775,1.247l-1.256.568-.151-1.37a3.5,3.5,0,0,0-.763-2.178,3.457,3.457,0,0,0-2.238-.535c-1.447,0-2.724.816-3.9,2.5a15.936,15.936,0,0,0-2.056,4.319l.8-.288a21.283,21.283,0,0,1,7.046-.992c1.381,0,3.555.118,6.463.351l1.1.088L24.6-31.444c-.073.409-.191,1.04-.349,1.878s-.284,1.472-.372,1.883a38.8,38.8,0,0,1-1.326,5.043,19.933,19.933,0,0,1-1.594,3.592,9.849,9.849,0,0,1-2.044,2.463A9.512,9.512,0,0,1,16.64-15.1a16.038,16.038,0,0,1-2.479.836l-.043.01a18.122,18.122,0,0,1-3.551.26,11.656,11.656,0,0,1-4.464-.8A7.824,7.824,0,0,1,2.889-17.16a10.176,10.176,0,0,1-1.747-3.417,14.674,14.674,0,0,1-.563-4.183,24.6,24.6,0,0,1,.473-4.506,27.7,27.7,0,0,1,2.482-7.541,17.235,17.235,0,0,1,4.243-5.4l.029-.023A13.2,13.2,0,0,1,16.061-45Zm.422,2h-.422a11.1,11.1,0,0,0-7.017,2.343c-2.993,2.5-5.02,6.455-6.026,11.759a22.611,22.611,0,0,0-.438,4.134,12.686,12.686,0,0,0,.479,3.611,8.187,8.187,0,0,0,1.4,2.75,5.852,5.852,0,0,0,2.409,1.758,9.682,9.682,0,0,0,3.7.651,16.773,16.773,0,0,0,3.116-.213,14.007,14.007,0,0,0,2.145-.721A7.54,7.54,0,0,0,17.614-18.1a7.857,7.857,0,0,0,1.625-1.966A17.986,17.986,0,0,0,20.663-23.3a36.837,36.837,0,0,0,1.256-4.786l0-.013c.085-.4.207-1.016.364-1.844q.08-.42.145-.77c-2.3-.172-4.048-.259-5.2-.259a21.443,21.443,0,0,0-5.546.616c.076.368.163.8.262,1.291q.122.607.221,1.092a12.59,12.59,0,0,1,1.355-.348,12.239,12.239,0,0,1,2.167-.157c.15,0,.376,0,.671-.011.314-.007.549-.011.719-.011H18.3l-.239,1.2c-.192.959-.391,1.815-.592,2.545a17.24,17.24,0,0,1-.818,2.294,8.3,8.3,0,0,1-1.228,2.049,5.684,5.684,0,0,1-1.788,1.4,5.3,5.3,0,0,1-2.416.553A4.475,4.475,0,0,1,7.4-20.217a7.633,7.633,0,0,1-1.2-4.651,22.7,22.7,0,0,1,.452-4.16A21.081,21.081,0,0,1,9.8-37.156c1.56-2.22,3.424-3.345,5.54-3.345a5.045,5.045,0,0,1,3.624,1.093,4.339,4.339,0,0,1,1.125,2.074l1.616-.724c.781-.349,1.439-.648,1.968-.892C22.671-41.572,20.307-42.9,16.482-43Zm-5.818,17.64-.229-1.113c-.1-.491-.251-1.23-.446-2.2s-.343-1.688-.443-2.161l-.174-.822a26.621,26.621,0,0,0-.753,3A20.725,20.725,0,0,0,8.2-24.868c0,3.905,1.612,4.406,3.017,4.406a3.274,3.274,0,0,0,1.513-.337,3.646,3.646,0,0,0,1.165-.9,6.329,6.329,0,0,0,.921-1.555,15.243,15.243,0,0,0,.723-2.027c.1-.362.2-.759.3-1.188h-.148a10.493,10.493,0,0,0-1.806.125,16.81,16.81,0,0,0-2.146.625ZM167.382-45c1.421,0,2.614.034,3.545.1a19.99,19.99,0,0,1,2.96.445,8.025,8.025,0,0,1,2.8,1.172,7.09,7.09,0,0,1,1.985,2.094,6.814,6.814,0,0,1,.913,3.658,13.248,13.248,0,0,1-.257,2.491c-.734,3.806-2.151,6.674-4.211,8.523-2.084,1.87-5.11,2.818-8.994,2.818-.792,0-1.63-.013-2.5-.038-.486,2.53-1.059,5.472-1.707,8.762l-.159.807h-7.465l.233-1.192c.617-3.158,1.556-7.979,2.79-14.328s2.17-11.159,2.79-14.331l.158-.808h.823c.805,0,1.808-.029,2.98-.086C165.27-44.966,166.386-45,167.382-45Zm-1.259,19.3c3.376,0,5.953-.776,7.658-2.306,1.728-1.551,2.934-4.045,3.583-7.413a11.255,11.255,0,0,0,.221-2.112,4.878,4.878,0,0,0-.608-2.6,5.1,5.1,0,0,0-1.423-1.508,6.048,6.048,0,0,0-2.106-.869,17.981,17.981,0,0,0-2.663-.4c-.884-.063-2.029-.1-3.4-.1-.964,0-2.047.029-3.219.086-.835.04-1.589.067-2.252.08-.617,3.159-1.5,7.7-2.633,13.529-1.088,5.6-1.946,10.009-2.557,13.139h3.391c.654-3.326,1.228-6.278,1.707-8.784l.161-.843.858.032C163.992-25.716,165.1-25.694,166.122-25.694Zm2.822-14.72h.2c.428,0,.77.008,1.045.023a5.365,5.365,0,0,1,1.165.222,3.213,3.213,0,0,1,1.27.661,3.383,3.383,0,0,1,.814,1.2,4.511,4.511,0,0,1,.332,1.8,8.618,8.618,0,0,1-.2,1.816,10.818,10.818,0,0,1-.948,2.771,7.112,7.112,0,0,1-1.4,1.931,6.058,6.058,0,0,1-1.78,1.145,7.246,7.246,0,0,1-1.8.526,12.6,12.6,0,0,1-1.711.107c-.47,0-1.239-.015-2.286-.044l-1.184-.033,1.935-9.72c.039-.155.09-.4.151-.716s.109-.583.137-.747l.139-.836h.847c.118,0,.448-.009,1.352-.053C167.777-40.4,168.425-40.415,168.945-40.415Zm-3.018,10.2a10.6,10.6,0,0,0,1.437-.088,5.271,5.271,0,0,0,1.3-.386,4.065,4.065,0,0,0,1.195-.766,5.16,5.16,0,0,0,.989-1.391,8.842,8.842,0,0,0,.766-2.261v-.007a6.614,6.614,0,0,0,.151-1.4,2.556,2.556,0,0,0-.167-1,1.486,1.486,0,0,0-.315-.511,1.256,1.256,0,0,0-.489-.229,3.441,3.441,0,0,0-.724-.147c-.233-.013-.547-.02-.931-.02h-.2c-.488,0-1.1.018-1.83.053l-.611.028c-.065.339-.119.6-.166.786l-1.457,7.323C165.322-30.215,165.672-30.21,165.927-30.21ZM33.418-38.794l.672.08c.6.071,1.507.165,2.7.28,1.212.116,2.13.212,2.729.285l1.065.13L37.5-22.058a5.366,5.366,0,0,0-.092.924,1.308,1.308,0,0,0,.2.835.97.97,0,0,0,.666.184,6.8,6.8,0,0,0,4.381-1.749L43.8-22.8l.442,1.415c.144.46.363,1.153.65,2.058s.509,1.606.653,2.067l.217.7-.6.42a12.191,12.191,0,0,1-4.137,1.793,19.73,19.73,0,0,1-4.689.582,8.086,8.086,0,0,1-4.983-1.3,4.843,4.843,0,0,1-1.858-4.1,9.657,9.657,0,0,1,.191-1.772c.216-1.154.553-2.906,1-5.2q.312-1.6.555-2.847-.471.251-1.03.519l-.8.385-.476-.751c-.279-.44-.692-1.119-1.23-2.02s-.933-1.562-1.193-2l-.646-1.077,1.195-.388c3.163-1.028,5.192-2.33,6.031-3.87Zm4.794,2.511c-.456-.048-.995-.1-1.611-.16-.848-.081-1.555-.153-2.114-.213A11.559,11.559,0,0,1,28.86-32.84l.565.946q.415.7.727,1.208a7.834,7.834,0,0,0,1.832-1.185l2.335-2.336-.648,3.239c-.23,1.151-.573,2.9-1.019,5.195s-.781,4.041-1,5.193a7.707,7.707,0,0,0-.157,1.4c0,1.586.55,3.407,4.84,3.407a17.73,17.73,0,0,0,4.213-.525,10.992,10.992,0,0,0,2.854-1.1c-.117-.372-.258-.816-.421-1.329l-.236-.745a8.335,8.335,0,0,1-4.477,1.356A2.707,2.707,0,0,1,35.4-21.134a7.371,7.371,0,0,1,.124-1.283l0-.014Zm149.566-2.511.672.08c.6.071,1.507.165,2.7.28,1.211.116,2.13.212,2.729.285l1.065.13-3.09,15.961a5.369,5.369,0,0,0-.092.925,1.308,1.308,0,0,0,.2.835.97.97,0,0,0,.666.184,6.8,6.8,0,0,0,4.381-1.749l1.146-.94.442,1.415c.144.461.357,1.134.65,2.058s.508,1.605.653,2.067l.217.7-.6.42a12.191,12.191,0,0,1-4.137,1.793,19.73,19.73,0,0,1-4.689.582,8.086,8.086,0,0,1-4.983-1.3,4.843,4.843,0,0,1-1.858-4.1,9.657,9.657,0,0,1,.191-1.772c.216-1.15.552-2.9,1-5.2q.312-1.6.555-2.847-.471.251-1.03.519l-.8.385-.476-.751c-.279-.44-.692-1.12-1.23-2.02s-.933-1.562-1.193-2l-.646-1.077,1.195-.388c3.163-1.028,5.192-2.33,6.031-3.87Zm4.794,2.511c-.456-.048-.995-.1-1.611-.16-.848-.081-1.555-.153-2.114-.213a11.559,11.559,0,0,1-5.628,3.816l.565.946q.415.7.727,1.208a7.834,7.834,0,0,0,1.832-1.185l2.336-2.336-.648,3.239c-.229,1.145-.572,2.892-1.019,5.195s-.782,4.045-1,5.193a7.708,7.708,0,0,0-.157,1.4c0,1.586.55,3.407,4.84,3.407a17.73,17.73,0,0,0,4.213-.525,10.992,10.992,0,0,0,2.854-1.1c-.116-.368-.255-.808-.421-1.329l-.236-.745a8.335,8.335,0,0,1-4.477,1.356,2.707,2.707,0,0,1-2.867-3.019,7.371,7.371,0,0,1,.124-1.283l0-.014Zm-133.35-2.33a8.77,8.77,0,0,1,2.732.43,8.158,8.158,0,0,1,1.763.73l.122.08.086-.312.215-.771.8.041,2.5.13,2.5.13,1.152.059-3.024,15.4c-.263,1.3-.537,2.509-.814,3.6-.282,1.1-.642,2.265-1.071,3.448a23.714,23.714,0,0,1-1.43,3.231,17.884,17.884,0,0,1-1.863,2.76A11.593,11.593,0,0,1,60.459-7.4a11.409,11.409,0,0,1-3.01,1.43,12.167,12.167,0,0,1-3.655.535c-2.848,0-6.153-1.106-9.825-3.288l-.8-.475.416-.832c.243-.486.607-1.225,1.082-2.2s.832-1.7,1.062-2.179l.51-1.052.96.668a12.575,12.575,0,0,0,6.963,2.644,3.227,3.227,0,0,0,1.053-.174,5.658,5.658,0,0,0,1-.45,3.425,3.425,0,0,0,.8-.691c.332-.373.61-.7.828-.982a6.562,6.562,0,0,0,.641-1.086l.11-.223q-.227.167-.452.312A9.591,9.591,0,0,1,55.9-14.428a9.216,9.216,0,0,1-2.825.439,5.674,5.674,0,0,1-4.832-2.559,10.255,10.255,0,0,1-1.7-6.061,19.964,19.964,0,0,1,1.57-8.009,14.06,14.06,0,0,1,4.49-5.811A10.9,10.9,0,0,1,59.223-38.612Zm5.932,4.565-1.267-.875c-.6-.412-1.02-.7-1.256-.852a6.715,6.715,0,0,0-1.3-.508,6.774,6.774,0,0,0-2.11-.33,8.818,8.818,0,0,0-5.43,1.79,12.089,12.089,0,0,0-3.847,5,17.98,17.98,0,0,0-1.4,7.211,8.317,8.317,0,0,0,1.335,4.9,3.726,3.726,0,0,0,3.2,1.718,7.219,7.219,0,0,0,2.213-.343,7.63,7.63,0,0,0,1.773-.79,8.964,8.964,0,0,0,1.452-1.2,13.8,13.8,0,0,0,1.129-1.236c.249-.325.545-.738.881-1.228l1.825-2.661v3.227a1.241,1.241,0,0,1-.041.308c-.013.053-.027.1-.043.149s-.026.073-.042.111a1.184,1.184,0,0,1-.041.123c-.154.516-.257.856-.315,1.037s-.2.581-.411,1.19a14.375,14.375,0,0,1-.565,1.418c-.137.281-.342.7-.61,1.242a8.347,8.347,0,0,1-.858,1.432c-.244.312-.55.676-.909,1.08a5.391,5.391,0,0,1-1.286,1.09,7.652,7.652,0,0,1-1.362.614,5.222,5.222,0,0,1-1.7.282,13.64,13.64,0,0,1-7.133-2.36l-.566,1.159q-.384.785-.671,1.367a17.041,17.041,0,0,0,8,2.546,10.173,10.173,0,0,0,3.054-.442,9.416,9.416,0,0,0,2.483-1.175,9.6,9.6,0,0,0,2-1.869,15.88,15.88,0,0,0,1.654-2.45A21.723,21.723,0,0,0,64.3-16.329c.407-1.122.748-2.219,1.013-3.261s.536-2.233.791-3.5l2.578-13.131-1.346-.071-1.692-.089c-.141.526-.188.734-.2.816Zm17.082-4.565a8.771,8.771,0,0,1,2.732.43,8.157,8.157,0,0,1,1.763.73l.122.08.086-.312.215-.771.8.041,2.5.13,2.5.13L94.1-38.1l-3.024,15.4c-.263,1.3-.537,2.509-.815,3.6-.282,1.1-.642,2.265-1.071,3.448a23.714,23.714,0,0,1-1.43,3.231A17.88,17.88,0,0,1,85.9-9.656,11.592,11.592,0,0,1,83.473-7.4a11.409,11.409,0,0,1-3.01,1.43,12.167,12.167,0,0,1-3.655.535c-2.847,0-6.153-1.106-9.825-3.288l-.8-.475.416-.832c.243-.486.607-1.225,1.082-2.2s.835-1.709,1.062-2.179l.51-1.052.96.668a12.575,12.575,0,0,0,6.963,2.644,3.227,3.227,0,0,0,1.053-.174,5.659,5.659,0,0,0,1-.45,3.425,3.425,0,0,0,.8-.691c.332-.373.61-.7.828-.982a6.562,6.562,0,0,0,.641-1.086l.11-.223q-.227.167-.452.312a9.592,9.592,0,0,1-2.244,1.012,9.216,9.216,0,0,1-2.825.439,5.675,5.675,0,0,1-4.832-2.559,10.255,10.255,0,0,1-1.7-6.061,19.964,19.964,0,0,1,1.57-8.009,14.06,14.06,0,0,1,4.49-5.811A10.9,10.9,0,0,1,82.236-38.612Zm5.931,4.565L86.9-34.922c-.6-.412-1.02-.7-1.256-.852a6.712,6.712,0,0,0-1.3-.508,6.774,6.774,0,0,0-2.11-.33,8.818,8.818,0,0,0-5.43,1.79,12.089,12.089,0,0,0-3.847,5,17.981,17.981,0,0,0-1.4,7.211,8.317,8.317,0,0,0,1.335,4.9,3.726,3.726,0,0,0,3.2,1.718,7.219,7.219,0,0,0,2.213-.343,7.629,7.629,0,0,0,1.773-.79,8.96,8.96,0,0,0,1.452-1.2,13.8,13.8,0,0,0,1.129-1.236c.249-.325.545-.738.881-1.228l1.825-2.661v3.227a1.241,1.241,0,0,1-.041.308c-.014.055-.028.1-.043.15s-.026.072-.042.11a1.187,1.187,0,0,1-.041.122c-.153.515-.256.854-.315,1.037s-.2.581-.411,1.19a14.384,14.384,0,0,1-.565,1.418c-.137.281-.342.7-.61,1.242a8.347,8.347,0,0,1-.857,1.432c-.243.312-.549.675-.909,1.08a5.392,5.392,0,0,1-1.286,1.09,7.655,7.655,0,0,1-1.362.614,5.223,5.223,0,0,1-1.7.282,13.64,13.64,0,0,1-7.133-2.36l-.566,1.159q-.384.785-.671,1.367a17.041,17.041,0,0,0,8,2.546,10.173,10.173,0,0,0,3.054-.442,9.417,9.417,0,0,0,2.483-1.175,9.6,9.6,0,0,0,2-1.869A15.876,15.876,0,0,0,86-13.372a21.717,21.717,0,0,0,1.306-2.957c.407-1.122.748-2.219,1.013-3.261s.536-2.233.791-3.5l2.578-13.131-1.346-.071-1.692-.089c-.141.526-.188.734-.2.816Zm125.415-4.565a8.771,8.771,0,0,1,2.732.43,8.158,8.158,0,0,1,1.763.73l.122.08.086-.312.215-.771.8.041,2.5.13,2.5.13,1.152.059-3.024,15.4c-.263,1.3-.537,2.509-.814,3.6-.282,1.1-.642,2.265-1.071,3.448a23.71,23.71,0,0,1-1.43,3.231,17.881,17.881,0,0,1-1.863,2.76A11.594,11.594,0,0,1,214.82-7.4a11.41,11.41,0,0,1-3.01,1.43,12.168,12.168,0,0,1-3.655.535c-2.847,0-6.153-1.106-9.825-3.288l-.8-.475.416-.832c.244-.488.608-1.226,1.082-2.2s.828-1.7,1.062-2.179l.51-1.052.96.668a12.575,12.575,0,0,0,6.963,2.644,3.227,3.227,0,0,0,1.053-.174,5.655,5.655,0,0,0,1-.45,3.423,3.423,0,0,0,.8-.691c.332-.373.61-.7.828-.982a6.561,6.561,0,0,0,.641-1.086l.11-.223q-.227.167-.452.312a9.592,9.592,0,0,1-2.244,1.012,9.216,9.216,0,0,1-2.825.439,5.675,5.675,0,0,1-4.832-2.559,10.255,10.255,0,0,1-1.7-6.061,19.964,19.964,0,0,1,1.57-8.009,14.06,14.06,0,0,1,4.49-5.811A10.9,10.9,0,0,1,213.583-38.612Zm5.932,4.565-1.267-.875c-.6-.412-1.02-.7-1.256-.852a6.716,6.716,0,0,0-1.3-.508,6.774,6.774,0,0,0-2.11-.33,8.818,8.818,0,0,0-5.43,1.79,12.089,12.089,0,0,0-3.847,5,17.981,17.981,0,0,0-1.4,7.211,8.317,8.317,0,0,0,1.335,4.9,3.726,3.726,0,0,0,3.2,1.718,7.219,7.219,0,0,0,2.213-.343,7.629,7.629,0,0,0,1.773-.79,8.96,8.96,0,0,0,1.452-1.2,13.806,13.806,0,0,0,1.129-1.236c.249-.325.545-.738.881-1.228l1.825-2.661v3.227a1.241,1.241,0,0,1-.041.308c-.014.055-.028.1-.043.15s-.026.072-.042.11a1.183,1.183,0,0,1-.041.123c-.153.514-.256.853-.315,1.037s-.2.581-.411,1.19a14.4,14.4,0,0,1-.565,1.418c-.138.282-.343.7-.61,1.242a8.347,8.347,0,0,1-.857,1.432c-.243.312-.549.675-.909,1.08a5.391,5.391,0,0,1-1.286,1.09,7.654,7.654,0,0,1-1.362.614,5.222,5.222,0,0,1-1.7.282,13.64,13.64,0,0,1-7.133-2.36l-.566,1.159q-.384.785-.671,1.367a17.041,17.041,0,0,0,8,2.545,10.173,10.173,0,0,0,3.054-.442,9.416,9.416,0,0,0,2.483-1.175,9.6,9.6,0,0,0,2-1.869,15.875,15.875,0,0,0,1.654-2.45,21.71,21.71,0,0,0,1.306-2.957c.407-1.122.748-2.219,1.013-3.261s.535-2.232.791-3.5h0l2.579-13.133-1.346-.071L220-36.377c-.141.526-.188.734-.2.816ZM129.307-38.33a12.1,12.1,0,0,1,3.433.454,7.859,7.859,0,0,1,2.561,1.23,6.982,6.982,0,0,1,1.646,1.8,7.023,7.023,0,0,1,.908,2.065,8.57,8.57,0,0,1,.246,2.053,7.368,7.368,0,0,1-.41,2.563,8.141,8.141,0,0,1-4.616,4.572,33.909,33.909,0,0,1-8.8,2.075,2.476,2.476,0,0,0,.385.478,2.259,2.259,0,0,0,1.674.623,10.429,10.429,0,0,0,6.313-1.956l.907-.665,3.275,5.78-.906.482c-.914.486-1.482.785-1.738.913s-.706.344-1.377.661a8.049,8.049,0,0,1-1.692.64c-.313.064-.787.165-1.409.3a12.344,12.344,0,0,1-2.068.272c-.649.03-1.424.044-2.3.044a8.521,8.521,0,0,1-6.553-2.5,9.462,9.462,0,0,1-2.285-6.661,18.8,18.8,0,0,1,.343-3.441v-.007a18.017,18.017,0,0,1,1.53-4.586,14.763,14.763,0,0,1,2.61-3.725,11.405,11.405,0,0,1,3.722-2.546A11.638,11.638,0,0,1,129.307-38.33Zm-2.974,19.912a4.219,4.219,0,0,1-3.08-1.2,3.785,3.785,0,0,1-1.22-2.752v-.888l.882-.105a35.551,35.551,0,0,0,9.355-2.061,6.139,6.139,0,0,0,3.549-3.443,5.4,5.4,0,0,0,.283-1.862,6.568,6.568,0,0,0-.188-1.573,5.036,5.036,0,0,0-.655-1.474,4.988,4.988,0,0,0-1.176-1.284,5.905,5.905,0,0,0-1.911-.9,10.122,10.122,0,0,0-2.864-.371,9.651,9.651,0,0,0-3.819.755,9.416,9.416,0,0,0-3.074,2.1,12.769,12.769,0,0,0-2.254,3.223,16.02,16.02,0,0,0-1.357,4.075,16.8,16.8,0,0,0-.308,3.067,7.546,7.546,0,0,0,1.753,5.3,6.534,6.534,0,0,0,5.085,1.861c.849,0,1.594-.014,2.213-.042a10.339,10.339,0,0,0,1.732-.228c.631-.138,1.113-.241,1.435-.307a6.3,6.3,0,0,0,1.239-.489c.649-.307,1.1-.522,1.337-.642.143-.071.406-.208.785-.408l-1.179-2.081A12.581,12.581,0,0,1,126.332-18.418Zm-67.565-15.7a6.548,6.548,0,0,1,5.215,2.835l.27.343-.068.432c-.044.279-.114.7-.209,1.241s-.162.945-.2,1.212l-.011.069-.021.067A11.614,11.614,0,0,1,61.608-24.5a30.354,30.354,0,0,1-3.682,3.828c-1.511,1.316-2.651,1.928-3.588,1.928a2.489,2.489,0,0,1-2.086-1.026,4.883,4.883,0,0,1-.651-2.905,15.06,15.06,0,0,1,1.959-8.159C54.951-33.013,56.7-34.118,58.767-34.118Zm3.369,3.741a4.4,4.4,0,0,0-3.369-1.741c-1.355,0-2.507.772-3.521,2.361A13.146,13.146,0,0,0,53.6-22.675a3.256,3.256,0,0,0,.261,1.719.506.506,0,0,0,.476.212c.1,0,.7-.069,2.274-1.437a28.349,28.349,0,0,0,3.439-3.575,10.3,10.3,0,0,0,1.757-2.689c.044-.276.109-.659.2-1.164C62.055-29.9,62.1-30.162,62.135-30.378Zm19.645-3.741A6.548,6.548,0,0,1,87-31.284l.27.343-.068.432c-.044.279-.114.7-.209,1.242s-.161.943-.2,1.212l-.011.069-.021.067A11.614,11.614,0,0,1,84.622-24.5a30.354,30.354,0,0,1-3.682,3.828c-1.511,1.316-2.651,1.928-3.588,1.928a2.489,2.489,0,0,1-2.086-1.026,4.883,4.883,0,0,1-.651-2.905,15.06,15.06,0,0,1,1.959-8.159C77.965-33.013,79.717-34.118,81.781-34.118Zm3.369,3.741a4.4,4.4,0,0,0-3.369-1.741c-1.355,0-2.507.772-3.521,2.361a13.146,13.146,0,0,0-1.645,7.083,3.256,3.256,0,0,0,.261,1.719.506.506,0,0,0,.476.212c.1,0,.7-.069,2.274-1.437a28.349,28.349,0,0,0,3.439-3.575,10.3,10.3,0,0,0,1.757-2.689c.044-.276.11-.667.2-1.164C85.069-29.9,85.113-30.162,85.149-30.378Zm127.978-3.741a6.548,6.548,0,0,1,5.215,2.835l.27.343-.068.432c-.044.279-.114.7-.209,1.242s-.162.944-.2,1.212l-.011.069-.021.067a11.614,11.614,0,0,1-2.132,3.418,30.353,30.353,0,0,1-3.682,3.828c-1.511,1.316-2.651,1.928-3.588,1.928a2.489,2.489,0,0,1-2.086-1.026,4.883,4.883,0,0,1-.651-2.905,15.06,15.06,0,0,1,1.959-8.159C209.312-33.013,211.064-34.118,213.127-34.118Zm3.369,3.741a4.4,4.4,0,0,0-3.369-1.741c-1.355,0-2.507.772-3.521,2.361a13.147,13.147,0,0,0-1.645,7.083,3.256,3.256,0,0,0,.261,1.719.506.506,0,0,0,.476.212c.1,0,.7-.069,2.274-1.437a28.35,28.35,0,0,0,3.439-3.575,10.3,10.3,0,0,0,1.757-2.689c.044-.275.11-.666.2-1.164C216.416-29.9,216.46-30.162,216.5-30.378ZM128.5-33.923a4.368,4.368,0,0,1,3.03.945,3.156,3.156,0,0,1,1.075,2.378,3.466,3.466,0,0,1-1.472,2.661,8.113,8.113,0,0,1-3.069,1.152,35.216,35.216,0,0,1-4.481.849l-1.361.165.258-1.346a10.092,10.092,0,0,1,2.183-4.823A5.07,5.07,0,0,1,128.5-33.923Zm1.367,4.436a1.628,1.628,0,0,0,.738-1.113,1.147,1.147,0,0,0-.423-.9,2.574,2.574,0,0,0-1.681-.422,3.142,3.142,0,0,0-2.33,1.3,7.172,7.172,0,0,0-1.366,2.49c.915-.155,1.84-.352,2.764-.588A8.705,8.705,0,0,0,129.87-29.487Z" transform="translate(11.921 160.471)" fill="#546466"/><g transform="translate(77.004 13.674)"><path d="M46.39,9.934A38.083,38.083,0,0,1,64.168,8.758,3.222,3.222,0,0,1,66.681,12.3c-.548,4.43-2.5,12.855-9.517,15.916Z" transform="translate(28.342 5.018)" fill="#cfd2d6"/><path d="M48.919,12.849a17.008,17.008,0,0,1,7.908-.677,1.543,1.543,0,0,1,1.335,2.014,9.361,9.361,0,0,1-5.008,5.9Z" transform="translate(29.887 7.322)" fill="#b5bcc1"/><path d="M16.464,14.342c-3.665-2.793-6.075-7.856-7.3-10.959a1.638,1.638,0,0,1,1.92-2.318A41.561,41.561,0,0,1,25.066,6.739Z" transform="translate(5.493 0.613)" fill="#f7cf96"/><path d="M41.027,6.736A41.561,41.561,0,0,1,55,1.062,1.638,1.638,0,0,1,56.931,3.38c-1.224,3.1-3.634,8.166-7.3,10.954Z" transform="translate(25.066 0.608)" fill="#f7cf96"/><path d="M10.528,28.212c-7.02-3.061-8.957-11.479-9.5-15.909A3.222,3.222,0,0,1,3.536,8.758,38.083,38.083,0,0,1,21.314,9.934Z" transform="translate(0.612 5.018)" fill="#677577" fill-rule="evenodd"/><path d="M10.38,20.082a9.361,9.361,0,0,1-5.008-5.9,1.543,1.543,0,0,1,1.335-2.014,17.008,17.008,0,0,1,7.908.677Z" transform="translate(3.238 7.322)" fill="#546466" fill-rule="evenodd"/><path d="M30.356,5A30.9,30.9,0,0,1,45.272,1C67.514,1,85.545,27.085,85.545,49.327A40.272,40.272,0,1,1,5,49.327,49.714,49.714,0,0,1,8.083,32.616Z" transform="translate(3.057 0.614)" fill="#e0e3e8"/><path d="M31.671,54.239a12.887,12.887,0,1,1-24.7-3.262,1.611,1.611,0,0,1,2.308-.751l6.254,3.686a1.611,1.611,0,0,0,2.383-1.79l-1.82-7.03a1.611,1.611,0,0,1,1.352-2.009,12.794,12.794,0,0,1,5.817.694A12.948,12.948,0,0,1,31.671,54.239Z" transform="translate(3.669 26.273)" fill="#546466" fill-rule="evenodd"/><path d="M13.851,27.9V43.314L1.06,43.233q.1-.459.242-.918l.741-2.223L6.376,27.06l.177-.515a3.734,3.734,0,0,1,4.092-2.529A3.866,3.866,0,0,1,13.851,27.9Z" transform="translate(0.65 14.649)" fill="#cfd2d6"/><path d="M13.887,36.591V38.2a6.46,6.46,0,0,1-6.444,6.444,1.593,1.593,0,0,1-2.062,1.53A6.424,6.424,0,0,1,1,40.087V37.638a6.522,6.522,0,0,1,.1-1.128c.4-.322,2.175-1.53,6.347-1.53C12.276,34.98,13.887,36.591,13.887,36.591Z" transform="translate(0.613 21.372)" fill="#546466" fill-rule="evenodd"/><path d="M38.1,54.239a12.887,12.887,0,1,0,24.7-3.262,1.611,1.611,0,0,0-2.308-.751l-6.254,3.686a1.611,1.611,0,0,1-2.383-1.79l1.82-7.03a1.611,1.611,0,0,0-1.352-2.009,12.794,12.794,0,0,0-5.817.694A12.948,12.948,0,0,0,38.1,54.239Z" transform="translate(23.215 26.273)" fill="#546466" fill-rule="evenodd"/><path d="M44.106,12.018V30.092L24.9,37.84c-6.766-7.6-17.994-6.734-17.994-6.734C11.066,19.573,19.121,9.005,29.173,3.48h.016A29.64,29.64,0,0,0,39.9,7.233a4.867,4.867,0,0,1,4.2,4.784Z" transform="translate(4.223 2.129)" fill="#546466" fill-rule="evenodd"/><path d="M29.887,15.582A6.444,6.444,0,1,1,18.53,11.41c.451.177,1.015.387,1.659.612a36.542,36.542,0,0,0,7.732,1.74q.846.1,1.74.145A6.371,6.371,0,0,1,29.887,15.582Z" transform="translate(10.387 6.973)" fill="#fff"/><path d="M35,15.582A6.444,6.444,0,1,0,46.357,11.41c-.451.177-1.015.387-1.659.612a36.542,36.542,0,0,1-7.732,1.74q-.846.1-1.74.145A6.371,6.371,0,0,0,35,15.582Z" transform="translate(21.384 6.973)" fill="#fff"/><path d="M28.138,44.269,23.45,34.91h21.1l-4.688,9.359Z" transform="translate(14.328 21.329)" fill="#546466" fill-rule="evenodd"/><ellipse cx="20" cy="12.5" rx="20" ry="12.5" transform="translate(28.328 33.326)" fill="#f7cf96"/><ellipse cx="2.5" cy="5.5" rx="2.5" ry="5.5" transform="translate(38.328 40.326)" fill="#d6ae7a"/><ellipse cx="2.5" cy="5.5" rx="2.5" ry="5.5" transform="translate(53.328 40.326)" fill="#d6ae7a"/><path d="M59.1,31.5a3.52,3.52,0,0,0-1.836-.209,3.866,3.866,0,0,0-3.206,3.882v4.382A18.67,18.67,0,0,1,46,24.039,19,19,0,0,1,50.2,12.07,56.7,56.7,0,0,1,59.1,31.5Z" transform="translate(28.103 7.376)" fill="#546466" fill-rule="evenodd"/><path d="M63.791,43.233q-.1-.459-.242-.918L58.3,26.544a3.734,3.734,0,0,0-4.092-2.529A3.866,3.866,0,0,0,51,27.9V43.314Z" transform="translate(31.158 14.649)" fill="#cfd2d6"/><path d="M51,36.591V38.2a6.46,6.46,0,0,0,6.444,6.444,1.593,1.593,0,0,0,2.062,1.53,6.424,6.424,0,0,0,4.382-6.089V37.638a6.522,6.522,0,0,0-.1-1.128c-.4-.322-2.175-1.53-6.347-1.53C52.611,34.98,51,36.591,51,36.591Z" transform="translate(31.158 21.372)" fill="#546466" fill-rule="evenodd"/><path d="M38.087,41.16l-1.079,2.159a5.224,5.224,0,0,1-9.569,0L26.36,41.16a15.4,15.4,0,0,1,11.727,0Z" transform="translate(16.105 24.439)" fill="#cd596b"/><path d="M96.543,57.673a7.922,7.922,0,0,0-.3-1.223l-5.26-15.787a5.334,5.334,0,0,0-2.416-2.924c-.322-1.247-.689-2.481-1.094-3.705,6.6-3.736,8.573-11.847,9.152-16.542A4.8,4.8,0,0,0,92.838,12.2a36.524,36.524,0,0,0-13.35-.035,36,36,0,0,0,3.984-7.534,3.32,3.32,0,0,0-.456-3.486A3.249,3.249,0,0,0,79.784.085,42.582,42.582,0,0,0,66.122,5.467a37.506,37.506,0,0,0-3.66-2.081,1.611,1.611,0,0,0-1.406,2.9,43.356,43.356,0,0,1,15.26,13.156,20.692,20.692,0,0,0-3.823,11.974,20.267,20.267,0,0,0,8.054,16.3V59.57a8.041,8.041,0,0,0,2.99,6.256,38.777,38.777,0,0,1-5.972,9.365l.884-3.428a3.249,3.249,0,0,0-.472-2.656,3.178,3.178,0,0,0-2.255-1.356A14.5,14.5,0,0,0,60.329,86.634a38.77,38.77,0,0,1-23.986,0,14.509,14.509,0,0,0-15.4-18.883,3.178,3.178,0,0,0-2.255,1.356,3.249,3.249,0,0,0-.472,2.656L19.1,75.19a38.737,38.737,0,0,1-5.973-9.363,8.042,8.042,0,0,0,2.983-6.257V42.551a5.464,5.464,0,0,0-4.48-5.455c.216-.764.416-1.54.657-2.278,2.626.016,9.789.551,14.8,5.376a10.21,10.21,0,0,0-1.308,4.913c0,5.353,4.311,9.928,10.854,12.439l5.477,10.93a6.832,6.832,0,0,0,12.449,0l5.477-10.93c6.537-2.511,10.848-7.086,10.848-12.439,0-7.779-9.079-13.931-20.942-14.448V14.146a6.444,6.444,0,0,0-5.585-6.379,28.442,28.442,0,0,1-7.207-2.06A28.59,28.59,0,0,1,48.329,3.224a27.685,27.685,0,0,1,7.611,1.084,1.611,1.611,0,0,0,.886-3.1A30.847,30.847,0,0,0,48.329,0,33.083,33.083,0,0,0,30.484,5.447,42.367,42.367,0,0,0,16.952.112a3.286,3.286,0,0,0-3.317,1.039,3.3,3.3,0,0,0-.475,3.438,36.292,36.292,0,0,0,4,7.571A36.588,36.588,0,0,0,3.822,12.2,4.805,4.805,0,0,0,.036,17.512C.614,22.2,2.58,30.31,9.184,34.047q-.619,1.851-1.1,3.705a5.343,5.343,0,0,0-2.416,2.929L.415,56.458a8.084,8.084,0,0,0-.3,1.224v.023A7.948,7.948,0,0,0,0,59v2.45a8.027,8.027,0,0,0,5.477,7.618,3.1,3.1,0,0,0,2.814-.424,3.235,3.235,0,0,0,.983-1.116,8.037,8.037,0,0,0,.967-.238,42,42,0,0,0,5.617,9.052l-2.094-1.234a3.248,3.248,0,0,0-2.677-.279,3.186,3.186,0,0,0-1.933,1.8,14.54,14.54,0,0,0-.627,9.218A14.366,14.366,0,0,0,19.916,96.421a15.09,15.09,0,0,0,2.639.235,14.4,14.4,0,0,0,12.433-7.075A41.478,41.478,0,0,0,48.3,91.808h.048a41.478,41.478,0,0,0,13.311-2.226A14.4,14.4,0,0,0,74.1,96.657a15.123,15.123,0,0,0,2.648-.235A14.366,14.366,0,0,0,88.138,85.851a14.535,14.535,0,0,0-.628-9.219,3.181,3.181,0,0,0-1.933-1.8,3.252,3.252,0,0,0-2.679.28L80.8,76.345a42.045,42.045,0,0,0,5.617-9.052,8.036,8.036,0,0,0,.967.238,3.235,3.235,0,0,0,.983,1.116,3.12,3.12,0,0,0,1.817.588,3.173,3.173,0,0,0,1-.161,8.029,8.029,0,0,0,5.469-7.621V59a7.927,7.927,0,0,0-.106-1.289ZM10.17,21.089a17.614,17.614,0,0,1,5.124.074c-.833,1.321-1.611,2.676-2.333,4.051a8.9,8.9,0,0,1-2.792-4.126ZM48.329,69.271a3.81,3.81,0,0,1-3.343-2.236l-.255-.507a14.735,14.735,0,0,1,7.194,0l-.255.507A3.81,3.81,0,0,1,48.329,69.271ZM53.4,63.588a17.916,17.916,0,0,0-10.139,0L40.866,58.8a35.187,35.187,0,0,0,14.927,0ZM67.66,45.108c0,6.112-8.852,11.276-19.331,11.276S29,51.22,29,45.108s8.86-11.276,19.331-11.276S67.66,39,67.66,45.108ZM43.89,10.957a3.241,3.241,0,0,1,2.829,3.19V30.66c-7.61.332-14.057,2.983-17.712,6.9a24.808,24.808,0,0,0-15.55-5.938A47.349,47.349,0,0,1,33.527,7.534,31.8,31.8,0,0,0,43.89,10.957Zm-27.8-7.721.209.027A37.856,37.856,0,0,1,27.571,7.482a47.341,47.341,0,0,0-5.746,5.211A27.087,27.087,0,0,1,16.159,3.4C16.148,3.386,16.092,3.253,16.085,3.236Zm-12.85,13.9a1.611,1.611,0,0,1,1.239-1.78,35.39,35.39,0,0,1,14.612.483q-.967,1.2-1.864,2.45a19.653,19.653,0,0,0-7.479-.4A3.252,3.252,0,0,0,7.353,19.43a3.019,3.019,0,0,0-.258,2.621,11.785,11.785,0,0,0,4.432,6.059c-.432.939-.833,1.886-1.211,2.837C5.3,27.766,3.72,21.06,3.235,17.133ZM8.728,41.7a2.13,2.13,0,0,1,2.038-1.464,2.274,2.274,0,0,1,.311.021,2.265,2.265,0,0,1,1.812,2.291V55.381a16.256,16.256,0,0,0-4.833-.644,17.623,17.623,0,0,0-3.8.382Zm-5.5,19.75V59c0-.06.011-.118.014-.176a10.816,10.816,0,0,1,4.818-.868,10.914,10.914,0,0,1,4.833.868v.743a4.833,4.833,0,0,1-3.222,4.535V62.792a1.611,1.611,0,1,0-3.222,0v3.2a4.8,4.8,0,0,1-3.222-4.536ZM30.318,90.339A11.262,11.262,0,0,1,12.134,77.888l6.254,3.686a3.222,3.222,0,0,0,4.757-3.583L21.3,70.953a11.275,11.275,0,0,1,9.019,19.386ZM84.526,77.864a11.245,11.245,0,1,1-10.453-6.982,10.93,10.93,0,0,1,1.256.072L73.514,77.99a3.222,3.222,0,0,0,4.757,3.581ZM92.4,55.12a17.623,17.623,0,0,0-3.8-.382,16.256,16.256,0,0,0-4.833.644V42.551a2.139,2.139,0,0,1,4.159-.852ZM83.7,25.2c-.73-1.384-1.516-2.729-2.345-4.039a17.475,17.475,0,0,1,5.121-.063,8.842,8.842,0,0,1-2.771,4.1Zm8.478-9.849a1.611,1.611,0,0,1,1.239,1.772c-.483,3.937-2.062,10.642-7.078,13.831q-.567-1.439-1.21-2.838a11.76,11.76,0,0,0,4.422-6.041,3.029,3.029,0,0,0-.253-2.635A3.259,3.259,0,0,0,86.9,17.9a19.632,19.632,0,0,0-7.481.4q-.905-1.256-1.869-2.452a35.269,35.269,0,0,1,14.633-.495ZM69.053,7.49a37.892,37.892,0,0,1,11.3-4.235,1.79,1.79,0,0,0,.188-.047L80.5,3.4A27.021,27.021,0,0,1,74.814,12.7,47.921,47.921,0,0,0,69.053,7.49Zm6.661,23.925A17.5,17.5,0,0,1,78.278,22.3,55.4,55.4,0,0,1,85.046,37.09a5.467,5.467,0,0,0-4.511,5.461v.9A17.206,17.206,0,0,1,75.714,31.415Zm17.72,30.038a4.775,4.775,0,0,1-3.222,4.536v-3.2a1.611,1.611,0,1,0-3.222,0v1.313a4.833,4.833,0,0,1-3.222-4.535v-.738A10.859,10.859,0,0,1,88.6,57.96a10.816,10.816,0,0,1,4.818.868c0,.058.014.116.014.176Z" transform="translate(0)" fill="#373737"/><path d="M26.833,24C24.122,24,22,26.83,22,30.444s2.122,6.444,4.833,6.444,4.833-2.83,4.833-6.444S29.544,24,26.833,24Zm0,9.665c-.657,0-1.611-1.255-1.611-3.222s.954-3.222,1.611-3.222,1.611,1.255,1.611,3.222S27.49,33.665,26.833,33.665Z" transform="translate(13.442 14.664)" fill="#373737"/><path d="M24.052,24.5a8.064,8.064,0,0,0,8.054-8.054,1.611,1.611,0,0,0,0-3.222c-.548,0-1.086-.019-1.611-.05h-.013a34.878,34.878,0,0,1-12.149-3,1.6,1.6,0,0,0-1.516,2.822A7.993,7.993,0,0,0,24.052,24.5Zm4.833-8.054a4.833,4.833,0,1,1-9.665,0,4.77,4.77,0,0,1,.549-2.209c.765.274,1.662.564,2.672.844v1.687a1.611,1.611,0,1,0,3.222,0V15.82c1.01.19,2.078.35,3.2.459C28.865,16.334,28.885,16.387,28.885,16.442Z" transform="translate(9.779 6.113)" fill="#373737"/><path d="M36.833,36.887c2.711,0,4.833-2.83,4.833-6.444S39.544,24,36.833,24,32,26.83,32,30.444,34.122,36.887,36.833,36.887Zm0-9.665c.657,0,1.611,1.255,1.611,3.222s-.954,3.222-1.611,3.222-1.611-1.255-1.611-3.222S36.175,27.222,36.833,27.222Z" transform="translate(19.551 14.664)" fill="#373737"/><path d="M50.555,10.893a1.611,1.611,0,0,0-2.16-.723,34.871,34.871,0,0,1-12.156,3h0c-.533.031-1.071.05-1.621.05a1.611,1.611,0,0,0,0,3.222A8.054,8.054,0,1,0,49.91,12.992a1.6,1.6,0,0,0,.644-2.1ZM42.661,21.276a4.833,4.833,0,0,1-4.833-4.833c0-.055.019-.108.023-.161,1.128-.11,2.189-.269,3.2-.459v.942a1.611,1.611,0,1,0,3.222,0V15.079c1.01-.28,1.907-.57,2.672-.844a4.77,4.77,0,0,1,.549,2.209A4.833,4.833,0,0,1,42.661,21.276Z" transform="translate(20.166 6.112)" fill="#373737"/></g></g></svg>